<?xml version="1.0" encoding="utf-8"?>
<!-- Generator: Adobe Illustrator 16.0.0, SVG Export Plug-In . SVG Version: 6.00 Build 0)  -->
<!DOCTYPE svg PUBLIC "-//W3C//DTD SVG 1.1//EN" "http://www.w3.org/Graphics/SVG/1.1/DTD/svg11.dtd">
<svg version="1.1" id="Layer_1" xmlns="http://www.w3.org/2000/svg" xmlns:xlink="http://www.w3.org/1999/xlink" x="0px" y="0px"
	 width="74.457px" height="64.518px" viewBox="0 0 74.457 64.518" enable-background="new 0 0 74.457 64.518" xml:space="preserve">
<g>
	<line fill="#FFFFFF" x1="6.271" y1="1.946" x2="67.382" y2="63.056"/>
	<g>
		<g>
			<g>
				<g>
					<path fill="#FFFFFF" d="M65.971,64.468c0.214-0.15,0.61-0.583,0.439-0.589l-0.765,0.639L65.971,64.468z"/>
					<path fill="#FFFFFF" d="M66.675,62.571c-0.445,0.236-1.163,0.714-1.74,1.426c0.777-0.572,0.521-0.265,1.436-0.957
						c0.17,0.007-0.07,0.38-0.344,0.624c0.211-0.149-0.017,0.292,0.472-0.101c0.429-0.659,0.304-0.827-0.297-0.531
						C66.323,62.844,66.538,62.693,66.675,62.571z"/>
					<path fill="#FFFFFF" d="M59.104,52.81l-0.028,0.14C59.106,52.888,59.113,52.843,59.104,52.81z"/>
					<path fill="#FFFFFF" d="M54.119,47.055c0.058,0.023,0.145-0.029,0.21-0.09C54.245,46.973,54.171,46.985,54.119,47.055z"/>
					<path fill="#FFFFFF" d="M53.976,45.365c-0.002,0.042,0.004,0.068,0.006,0.102C54.027,45.381,54.042,45.324,53.976,45.365z"/>
					<path fill="#FFFFFF" d="M59.104,52.81l0.077-0.364C58.941,52.665,59.084,52.689,59.104,52.81z"/>
					<path fill="#FFFFFF" d="M63.786,63.069c0.064-0.004,0.155-0.044,0.263-0.107c-0.056,0.006-0.104,0.007-0.148,0.001
						C63.862,63,63.828,63.031,63.786,63.069z"/>
					<path fill="#FFFFFF" d="M62.04,54.607l0.045,0.043c0.093-0.072,0.201-0.156,0.321-0.25L62.04,54.607z"/>
					<path fill="#FFFFFF" d="M63.964,56.316c-0.015-0.067-0.625,0.515-0.902,0.76c0.269-0.222,0.416-0.309,0.498-0.319
						C63.674,56.644,63.805,56.503,63.964,56.316z"/>
					<path fill="#FFFFFF" d="M65.795,60.246l0.134-0.031C65.89,60.227,65.843,60.229,65.795,60.246z"/>
					<path fill="#FFFFFF" d="M60.868,53.179c0.085-0.092,0.157-0.177,0.197-0.23C60.99,53.023,60.926,53.101,60.868,53.179z"/>
					<path fill="#FFFFFF" d="M5.578,6.851c0.043-0.043,0.069-0.069,0.106-0.106C5.614,6.794,5.568,6.833,5.578,6.851z"/>
					<path fill="#FFFFFF" d="M6.426,1.792l0.061-0.003c0.115-0.111,0.228-0.219,0.34-0.328L6.426,1.792z"/>
					<path fill="#FFFFFF" d="M53.062,42.923c-0.001,0.009-0.002,0.011-0.004,0.019C53.17,42.918,53.133,42.905,53.062,42.923z"/>
					<path fill="#FFFFFF" d="M37.22,27.96c-0.358,0.708-0.968,0.4-1.297,1.255C36.131,28.958,37.091,28.524,37.22,27.96z"/>
					<path fill="#FFFFFF" d="M63.817,62.944c-0.031-0.018-0.062-0.038-0.08-0.069C63.751,62.929,63.777,62.949,63.817,62.944z"/>
					<path fill="#FFFFFF" d="M35.923,29.215c-0.002,0.003-0.005,0.005-0.005,0.005l-0.029,0.083
						C35.903,29.267,35.911,29.246,35.923,29.215z"/>
					<path fill="#FFFFFF" d="M48.838,39.416c-0.097,0.113-0.162,0.208-0.222,0.3C48.676,39.653,48.742,39.57,48.838,39.416z"/>
					<path fill="#FFFFFF" d="M50.87,43.144l0.009-0.151C50.852,43.075,50.856,43.117,50.87,43.144z"/>
					<path fill="#FFFFFF" d="M46.501,38.762c0.007-0.084,0.076-0.18-0.057-0.153c-0.025,0.035-0.042,0.062-0.057,0.089
						C46.488,38.635,46.552,38.623,46.501,38.762z"/>
					<path fill="#FFFFFF" d="M44.941,37.209c-0.032,0.052-0.061,0.099-0.091,0.149l0.082,0.017L44.941,37.209z"/>
					<path fill="#FFFFFF" d="M10.595,11.293c0.134-0.202,0.297-0.408,0.464-0.608C10.659,11.134,10.279,11.057,10.595,11.293z"/>
					<path fill="#FFFFFF" d="M64.121,62.733c-0.159,0.141-0.247,0.203-0.303,0.211c0.024,0.011,0.054,0.016,0.084,0.02
						C63.995,62.88,64.079,62.797,64.121,62.733z"/>
					<path fill="#FFFFFF" d="M41.734,43.402l-0.159-0.335C41.586,43.194,41.646,43.314,41.734,43.402z"/>
					<path fill="#FFFFFF" d="M21.846,22.375l-0.128,0.015C21.726,22.424,21.763,22.427,21.846,22.375z"/>
					<path fill="#FFFFFF" d="M40.752,42.421c0.167-0.254,0.242-0.423,0.273-0.552c-0.057,0.037-0.107,0.063-0.183,0.125
						L40.752,42.421z"/>
					<path fill="#FFFFFF" d="M11.065,10.679c-0.002,0.003-0.006,0.006-0.006,0.006S11.062,10.682,11.065,10.679z"/>
					<path fill="#FFFFFF" d="M8.02,10.467C8.238,10.719,8.897,9.81,9.397,9.41c0.503,0.059-0.447,0.707-0.752,1.204
						c0.383-0.031,1.237-0.616,1.337-0.455c-0.119,0.139-0.141,0.211-0.333,0.343c0.809-0.438,0.582,0.521,1.581-0.046
						c-0.053,0.085-0.111,0.159-0.166,0.223c0.357-0.427,0.751-0.832,1.042-1.108c0.119,0.092,0.691-0.299,0.219,0.252
						c-0.05-0.08-0.262,0.122-0.452,0.251l0.333-0.112c-0.637,0.836-0.406,0.104-0.951,0.649c0.455-0.023,1.316-0.382,1.273-0.008
						c-0.686,0.755-0.629-0.144-1.049,0.717l0.02-0.532c-0.941,1.333-0.076-0.234-1.112,1.161c0.128,0.545,0.744,0.01,0.869,0.556
						c0.476-0.325,0.567-0.617,1.043-0.942c1.197-0.242-1.436,2.187-0.125,1.579c0.571-0.389,1.518-1.266,1.286-0.534l-0.9,0.729
						c0.246,0.407,1.357-0.985,1.15-0.095c-0.381,0.259-0.526,0.014-0.573,0.16c-0.422,0.864,0.618-0.306,0.788-0.135l-0.686,0.756
						c0.46,0.234,1.364,0.095,1.88,0.348c-0.236,0.193-0.527,0.353-0.658,0.664c0.846,0.125,0.947,1.123,0.987,2.019l0.801-0.444
						c0.035,0.048-0.204,0.358-0.37,0.434c-0.054,0.418,0.405-0.386,0.737-0.542c0.147,0.06-0.221,0.495-0.474,0.616
						c0.849-0.206,2.053-0.221,1.725,0.785l-0.251,0.119c0.011,0.517,1.574-0.979,1.238-0.153l-0.157,0.063
						c0.303,0.843,1.506,0.905,1.003,2.282c0.98-0.814,0.167,0.967,1.455-0.247c-0.293,0.947-0.61,1.077-0.566,1.954
						c0.065,0.18,0.964-0.598,1.247-0.576l-0.65,0.657l0.892-0.479l-0.672,0.892l0.311-0.025c-0.018-0.096,0.173-0.415,0.37-0.594
						c0.519-0.073,0.087,0.999-0.242,1.339l1.081-0.026c-0.275,0.251-0.453,0.253-0.691,0.352c0.949-0.386-0.638,0.74,0.232,0.386
						c0.114-0.183,0.408-0.371,0.546-0.497c-0.267,0.523,0.022,0.82,0.406,0.87l-0.492,0.409c0.276,0.506,1.04,0.608,1.471,1.055
						c0.053-0.368,0.87-1.113,1.074-1.059l-0.639,0.742c0.51-0.343,0.126-0.395,0.819-0.747c0.084,0.244-0.675,0.896-0.994,1.026
						l0.439-0.041c-0.195,0.218-0.35,0.28-0.625,0.531c0.511-0.348-0.35,1.038,0.514,0.41l-0.194,0.217
						c0.433,0.444,0.87,0.406,1.262,0.729c0.604-0.59,0.611-0.317,1.199-0.693c0.073,0.453-0.104,1.213,0.262,1.479
						c0.52-0.074,0.57-0.44,1.025-0.695c-0.527,0.56-0.16,0.825-0.714,1.051c0.468,0.292,0.594,0.376,1.515,0.416
						c0.17-0.275,0.208-0.43,0.424-0.584c0.177-0.003-0.029,0.426-0.303,0.674l-0.079,0.033c1.354-0.276-0.34,2.828,1.222,2.125
						l-0.08,0.032l1.036-0.145c0.111,0.299-0.531,0.286-0.716,0.773c1.386-0.426,0.627,0.89,1.626,0.682
						c-1.297,1.909,1.199,0.973,0.589,2.41l0.354-0.401c0.477-0.264-0.087,0.345-0.095,0.51c0.282-0.304,0.224-0.455,0.495-0.594
						c1.36,0.449,1.315,2.418,1.902,3.687c0.238,0.44,2.146-1.761,1.672-0.432l-0.822,0.58c1.525-0.157,1.371,1.429,2.754,1.386
						c-0.202,0.122-0.413,0.331-0.476,0.263c-0.367,0.65,0.499,0.548,0.917,0.135c0.057,0.152-0.352,0.4-0.499,0.676
						c-0.158,0.442,1.006-0.294,0.576,0.288c-0.07,0.095-0.205,0.125-0.271,0.139c0.339-0.154,0.368,0.494,0.867-0.182
						c-0.028,0.532,0.743,0.22,0.596,0.768c0.787-0.526,0.114,0.747,1.084-0.141c-0.978,0.942-0.333,1.215,0.277,0.923
						c-0.343,0.237-0.162,0.438-0.626,0.778c0.195,0.168,0.54,0.156,1.001-0.369c-0.814,1.482,1.596-0.252,0.313,1.408
						c1.055,0.023,1.903,0.173,2.612,0.433c-0.975,0.939-0.631-0.441-1.615,0.585c0.854,0.066,1.941-0.49,2.166,0.197
						c-0.012,0.249-0.482,0.348-0.686,0.472c0.854,0.065,0.802,0.976,1.732,0.864c-0.09,0.088-0.232,0.141-0.347,0.172
						c0.112,0.049,0.048,0.327,0.473-0.116l-0.197,0.04c0.503-0.76,1.639-0.999,1.987-1.318c-1.383,1.11,0.09,0.717-1.702,2.075
						c0.135-0.029,0.407-0.168,0.687-0.471c-0.006,0.164-0.151,0.358-0.562,0.609c0.525,0.052,0.885-0.513,1.137-0.242
						c-0.212,0.21-0.346,0.238-0.621,0.459c0.543-0.278,1.087-0.556,1.129-0.157c-0.14,0.114-0.279,0.304-0.342,0.235
						c0.443,0.316,1.74-0.446,1.761,0.366c-1.038,0.792-0.16,0.443-0.93,1.257l0.46-0.012l0.294-0.474
						c0.183,0.209,0.933-0.194,0.842,0.234l-0.472,0.181l0.518,0.217l0.093-0.508c0.606-0.21,0.98-1.023,1.021-0.542
						c-0.133,0.027,0.187,0.206-0.178,0.775l-0.003,0.001c0.349-0.155,0.715-0.321,0.663,0.021c-0.216,0.291-0.906,0.845-1.05,1.038
						c0.757-0.566,0.643,0.276,1.469-0.308c-0.206,0.125-0.624,0.539-0.695,0.637l0.618-0.458c-0.081,0.263-0.151,0.359-0.498,0.676
						c0.175,0.372,0.918-1.091,0.809-0.334c-0.069,0.018-0.137,0.11-0.271,0.139c0.1,0.552,0.971,0.288,1.005,0.852
						c-0.709,0.885-0.457-0.066-1.028,0.707c0.576,0.287,1.849-0.062,2.079,0.544l0.01-0.166c1.183-1.067-0.245,0.867,0.497,0.548
						c-0.135,0.032-0.692,0.557-0.553,0.445c0.105,0.467,0.862,0.309,1.649,0.388l-0.343,0.236
						c-0.089,0.426,0.295,0.593,0.346,0.906c0.343-0.234,0.4-0.084,0.757-0.567c-1.084,2.207,1.954,0.188,1.081,2.058
						c-0.063-0.057-0.395,0.111-0.348,0.159l0.69,0.159c0.457-0.524,0.241-0.353,0.534-0.823c0.344-0.237,0.689-0.342,0.794-0.237
						c-0.516,0.134-0.786,0.789-0.977,1.145c0.136-0.164,0.33-0.301,0.476-0.461c-0.65,1.094,1.023-0.949,0.738-0.059l-0.273,0.241
						c0.245-0.018,0.689-0.254,0.738-0.058c-0.517,0.618-0.385,0.144-0.86,0.603c0.204,0.139,1.413-0.735,1.003-0.015
						c-0.23,0.085-0.338-0.017-0.568,0.067c-0.497,0.834-0.308,0.686-0.288,0.917l0.003-0.027l-0.011,0.592l0.107-0.255
						c1.693-1.264,0.707,0.167,1.965-0.512c-1.198,0.636-0.577,0.484-1.241,1.104c-0.105,0.253-0.192,0.565-0.405,0.714
						c0.655-0.382-0.18,0.636,0.771,0.071c-0.198,0.215,0.126,0.167-0.424,0.655c0.34,0.015,0.318-0.402,0.592-0.646
						c0.981-0.433-0.213,1.501,1.151,0.925c0.738-0.059,1.499-0.694,2.162-0.726c-0.225,0.438-0.841,0.667-0.841,0.667
						c-0.133,0.476,0.052,0.549,0.452,0.474c-0.214,0.148-0.333,0.334-0.516,0.616c0.184,0.076,0.84-0.666,0.706-0.19
						c-0.26,0.201-0.667,0.533-0.96,0.701c0.343-0.037,0.88-0.272,1.226-0.3c-0.319,0.402-0.643,0.451-0.934,0.63
						c0.34,0.016,0.789,0.135,1.414-0.381l0.089-0.317c0.093,0.037-0.456,0.523-0.608,0.58c-0.6,0.295-0.022-0.418,0.177-0.634
						l0.246-0.02c1.097-1.329-0.648-0.258-0.805-0.556l0.977-0.788l-0.965,0.5c0.181-0.279,0.639-0.806,0.883-0.826
						c0.273-0.599-0.457,0.17-0.111-0.457c0.061-0.091,0.11-0.126,0.159-0.147l-0.422,0.104c0.217-0.154,0.597-0.649,0.566-0.424
						c0.224-0.794-1.122,0.202-0.561-0.575l0.078-0.03c-0.694-0.098-0.687,0.609-1.744,1.073l1.398-1.798l-0.687,0.609
						c-0.018-0.064-0.05-0.193,0.225-0.438c-0.596,0.291-0.256,0.308-0.763,0.638c0.393-0.787-0.818-0.266,0.169-1.343
						c-0.563,0.422-0.192,0.568-0.745,0.701c1.05-1.17-0.433-0.053-0.104-0.741c0.628-0.518,0.495-0.044,0.827-0.736
						c-1.077,0.86-0.138-0.562-0.475-0.528c-0.777,0.764-0.65-0.008-1.162-0.006c0.275-0.243-0.056-0.901-0.013-1.417l0.136-0.123
						c-0.825,0.733-0.922,0.342-1.26,0.325c0.474-0.459,0.688-0.611,0.994-0.724l-0.17-0.163c-0.289,0.21-0.473,0.29-0.67,0.27
						l0.624-0.54c-0.254-0.19-1.133,0.238-1.03-0.437c-0.56,0.527-1.285,1.74-1.951,1.8c0.283-0.305,0.774-0.818,0.973-0.859
						c-0.064,0.012-0.336,0.151-0.263-0.026l0.615-0.374c0.087-0.347-0.481,0.345-0.539,0.194c0.421-0.417,0.222-0.376,0.569-0.693
						c0.067-0.014-0.082,0.264,0.122,0.14c-0.042-0.192,0.064-0.583,0.334-0.947c-0.228,0.248-0.564,0.564-0.704,0.532
						c-0.253-0.192,0.428-0.58,0.514-0.925c-0.345,0.237-0.186-0.206-0.815,0.417c-0.062-0.068,0.218-0.373,0.363-0.567
						c-0.392,0.162-0.617-0.458-1.153,0.337l-0.015,0.074c-0.019,0.007-0.025,0.001-0.046,0.008l0.001,0.001l-0.001-0.001
						c-1,0.246-0.429-1.138-1.071-1.245l0.21-0.208c-0.462,0.016-0.639-0.356-1.249-0.065c-0.065-0.066,0.227-0.539,0.504-0.759
						c-0.328-0.013-0.582,0.203-0.483-0.39c0.537-0.194,0.264-0.383,0.443-0.092c-0.041-0.402,0.245-0.789-0.566-0.454
						c0.618-0.456,0.508-0.843,0.243-0.788l-0.229,0.54c-0.197-0.041-0.253-0.192-0.312-0.343l0.763-0.649
						c0.405-1.313-2.28,0.642-1.188-1.141c-0.614,0.373-0.101,0.594-0.786,1.064c-0.113-0.304,0.682-1.535,0.619-1.602
						c0.105-0.677-1.298,0.764-1.33,0.197c-0.213,0.29-0.849,0.998-1.31,1.011c-0.116-0.302,0.799-1.312,1.133-1.383
						c0.071,0.029,0.015,0.133-0.072,0.216c0.159-0.024,0.355-0.043,0.545-0.399l-0.279,0.225c0.153-0.361-0.161-0.621,0.319-0.967
						c-0.398,0.083-0.48,0.346-0.494,0.593c0.097-0.632-0.408-0.43-0.439-0.95c-0.095,0.183-0.35,0.519-0.391,0.472
						c-0.093-0.716-0.656,0.299-1.041,0.136c0.228-0.54,0.972-0.86,0.375-0.815c0.091-0.429,0.632-0.704,0.904-0.842
						c-0.737,0.234-0.151-0.789-0.205-1.021l0.335-0.071c-0.2,0.042-0.261-0.027-0.326-0.095l-0.429,0.58
						c0.011-0.166-0.053-0.234,0.157-0.441c-0.41,0.25-0.776,0.898-1.386,1.191c0.152-0.36-0.59-0.042,0.042-0.746
						c0.1,0.553,0.635-0.707,1.019-0.539c-0.133,0.026-0.195-0.042-0.184-0.208c0.062-0.086,0.149-0.127,0.208-0.144
						c0.285-0.909-0.899,0.612-1.207,0.273c0.417-0.335,0.639-0.789,0.506-0.761c0.123,0.138-0.566,0.69-0.974,0.859
						c0.085-0.5-0.444-0.007-0.518-0.15l-0.014,0.262c-0.418,0.334-0.473,0.182-0.736,0.156c0.281-0.306,0.333-0.071,0.411-0.251
						c-0.822,0.501,0.323-1.048-0.347-0.826c0.151-0.359,0.697-0.717,0.779-0.981c-0.739,0.237,0.244-0.788-0.423-0.648
						c-0.43,0.582-0.293,0.472-0.972,0.78l0.79,0.077l-1.014,0.458c0.124,0.138,0.595-0.042,0.586,0.123
						c-0.545,0.28-0.406,0.168-0.763,0.65c0.581-0.938-0.797,0.087-0.491-0.632l1.26-1.247c0.247-0.87-1.196,0.09-1.285-0.629
						l-0.088,0.348c-0.552,0.443-0.319-0.18-0.651-0.109c0.431-0.407,0.501-0.641,0.706-0.957c-0.304,0.317-0.267-0.324-1.14,0.476
						l0.371-0.732c-0.1-0.552-1.565,0.821-1.736,0.365c0.55-0.361,0.704-0.8,1.24-0.916c-0.101-0.109-0.118-0.279-0.41,0.009
						c0.201-0.323-0.855,0.274-0.553-0.22c-0.228,0.14-0.681,0.564-0.764,0.412c0.072-0.098,0.208-0.207,0.208-0.207
						c-0.208,0.207-0.465,0.098-0.826,0.664c0.984-1.629-0.996-0.807-0.155-2.209c-0.369-0.088-0.779-0.229-1.017-0.406
						c0.139-0.112,0.209-0.208,0.205-0.125c0.104-0.675-1.378,1.026-1.269,0.267c0.511-0.844,0.539-0.193,0.692-0.554
						c1.333-1.423-0.581-0.205,0.004-1.228l0.134-0.028c0.301-0.636-0.931,0.113-1.106-0.259c0,0,0.135-0.108,0.21-0.207
						c-0.89,0.516-1.477,0.394-1.936,0.326c0.621-0.457,0.405-0.166,0.903-0.764c-0.196-0.041-0.846,0.915-1.234,0.832
						c0.219-0.372,0.307-0.799,0.869-1.407l0.254,0.19c0.643-0.87-0.313-0.262-0.299-0.51l0.345-0.315
						c-0.448-0.233-1.286,0.596-1.592,0.17l-0.212,0.288c-1.025,0.625,0.296-0.632-0.517-0.217l0.777-0.898
						c-0.334,0.07-1.271,0.347-1.666,0.268c0.755-0.487,1.349-0.527,1.889-0.725c-0.125-0.137-0.506-0.383-0.987-0.038
						c0.133-0.028,0.405-0.167,0.328,0.014c-0.819,0.498-1.354,0.61-1.6,0.335c1.669-1.578-0.271-1.088,0.802-2.539
						c-1.062,0.14-0.659-1.17-1.292-1.611c-1.072,1.453-0.192-0.121-1.457,1.209c-0.208-0.042-0.234-0.111-0.162-0.207l0.396-1.154
						c0.288-0.468,0.405-0.167,0.684-0.47c-0.174-0.373,0.435-0.665,0.598-1.19c-0.427,0.501-0.76,0.569-0.738,0.236l-0.378,0.818
						c-1.073,0.307,0.758-1.419-0.312-1.122l0.53-0.286c-0.439,0.043-0.722-0.739-1.958,0.109c0.115-0.185,0.423-0.586,0.604-0.592
						c-0.316-0.63-2.162,0.056-1.888-0.954l0.353-0.281c-0.18,0.003-0.75,0.442-0.541,0.012c0.137-0.125,0.352-0.281,0.33-0.34
						c-0.156,0.062-0.791,0.321-0.723,0.019l0.457-0.257c-0.046-0.877-1.578,0.161-2.182-0.009c0.935-0.933,0.875-1.6,0.845-1.932
						l0.138-0.125c-0.422-0.653-1.687-0.139-2.551-0.271c0.705-1.322-0.622-1.471-0.55-2.536c-0.094,0.245-0.74,0.715-0.922,0.721
						c0.073-0.306-0.97,0.326-0.095-0.512l0.025,0.058c0.752-0.928,0.29-0.944,0.125-1.154l-1.151,1.089
						c1.141-2.119-1.88-0.683-0.688-2.409c-0.398,0.162-0.541,0.012-0.938,0.175l0.607-0.594c-0.173-0.48-0.261-0.719-0.809-0.98
						l0.512-0.347c-0.189-0.267-2.02,1.444-2.266,1.269l0.833-0.96c-0.412-0.384-0.027-1.573-1.233-1.153
						c0.138-0.125,0.409-0.373,0.509-0.344c-0.164-0.21-0.117-1.331-1.28-0.033c0.796-0.806-0.332-0.488-0.9-0.35l0.625-0.558
						c-0.937,0.574-1.149,0.775-1.611,0.731c0.017-0.137,0.421-0.526,0.349-0.295c0.11-0.509-0.715,0.404-0.643-0.153l0.468-0.287
						c-0.16-0.251-0.346-0.032-0.899,0.294c-0.367,0.108-0.241-0.539,0.263-1.104c-0.354,0.298-0.902,0.622-0.869,0.346
						c0.186-0.218,0.355-0.299,0.438-0.338c0.059-0.746-1.199,0.176-0.855-0.641c0.191-0.201,0.273-0.314,0.313-0.393
						c0.259,0.288,0.447,0.54,0.383,0.562c0.545-0.545,0.42-0.861,1.348-1.438c-0.588,0.233-1.784,0.823-1.742,0.352
						c0.042-0.063,0.084-0.125,0.16-0.217l0.083-0.039c0.005-0.104-0.09-0.098-0.224-0.048c0.021-0.158,0.043-0.268-0.014-0.342
						c0.425-0.476-0.01-0.496-0.099-0.628c-0.587,0.605-0.635,0.365-0.992,0.992c0.025-0.06,0.092-0.05,0.189-0.002
						c0.034-0.001,0.062,0.01,0.109-0.015l-0.06,0.045c0.089,0.055,0.197,0.136,0.313,0.234c-0.39,0.216-0.735,0.38-0.526-0.073
						c-0.438,0.317-0.894,0.647-1.116,0.809c0.681-0.982,0.84-1.722,1.312-2.275c-0.67-0.001-1.012-0.571-2.344,0.338
						c-0.24,0.048,0.211-0.431,0.352-0.643c0.167-0.057,0.216,0.026,0.407-0.105c-0.478,0.096-0.678-0.454-1.506,0.283
						c0.112-0.594,0.856-0.585,0.397-0.788l0.284-0.194c0.6-1.902-3.056,0.939-2.172-1.388c-0.048,0.148-0.069,0.219-0.19,0.36
						c-0.115-1.531-2.36-1.031-2.049-2.966c-0.004-0.457-0.529,0.018-1.05,0.257l0.591-0.69l-0.98,0.498
						c-0.883,0.2,0.98-2.163-0.475-1.572L8.954,2.766C8.88,2.529,8.207,2.528,8.729,2.058C8.635,2.121,8.23,2.456,8.394,2.17
						l0.33-0.34L7.769,2.023C7.715,1.485,9.146,0.739,8.779,0.242C8.49,0.211,7.347,0.761,7.183,1.046
						C7.231,1.127,7.139,1.42,6.808,1.761L6.487,1.789c-1.014,0.961-2.139,1.86-2.468,2.91l0.855-0.353l-0.398,0.56L4.234,4.724
						c-0.331,0.57,0.144,0.248,0.502,0.059C4.502,5.058,4.359,5.271,4.314,5.417l1.19-0.698C5.147,5.136,4.626,5.375,4.578,5.754
						C5.132,5.432,5.334,4.777,5.813,4.68C5.484,5.249,5.083,5.58,5.607,5.337C5.373,5.611,5.181,5.744,5.013,5.8
						c0.431-0.18,0.461,0.203,1.051-0.257c-0.429,0.679,0.567,0.279-0.38,1.202C5.947,6.56,6.639,6.231,6.793,6.308
						c-1.33,0.909,0.366,0.497-0.89,1.641c1.162-0.851,1.01,0.116,1.844-0.167C7.651,7.846,7.459,7.978,7.486,7.903
						C7.558,8.141,7.299,8.49,7.209,8.78c0.852-0.812,1.283-0.76,1.926-1.142c-0.611,0.992-1.091,0.86-1.802,1.69
						c0.664-0.683,1.003-0.342,1.5-0.967c-0.351,0.642-0.115,0.366-0.729,1.13c1.065-1.014,0.312-0.041,1.07-0.558
						C8.872,9.656,8.254,9.96,8.802,9.875C8.594,10.304,8.02,10.467,8.02,10.467z M15.32,14.173c-0.006,0.005-0.01,0.01-0.012,0.012
						c-0.061-0.033-0.114-0.062-0.147-0.08C15.194,14.119,15.24,14.139,15.32,14.173z M15.792,14.626
						c-0.033-0.08-0.099-0.154-0.177-0.224c0.19-0.222,0.419-0.417,0.455-0.359C15.907,14.155,15.897,14.383,15.792,14.626z
						 M18.946,9.515c0.157-0.011,0.065,0.13-0.047,0.263c-0.045-0.024-0.105-0.044-0.199-0.057c-0.024,0.02-0.054,0.043-0.082,0.064
						C18.739,9.679,18.854,9.58,18.946,9.515z"/>
					<path fill="#FFFFFF" d="M18.032,10.166c-0.023,0.002-0.055,0.022-0.074,0.014c-0.037,0.067-0.068,0.126-0.09,0.178
						c0.072-0.055,0.144-0.109,0.213-0.161L18.032,10.166z"/>
					<path fill="#FFFFFF" d="M59.072,52.972l0.003-0.023c-0.015,0.031-0.031,0.062-0.064,0.105
						C59.039,53.018,59.051,53,59.072,52.972z"/>
					<polygon fill="#FFFFFF" points="21.037,22.153 21.187,22.001 21.015,22.093 					"/>
					<path fill="#FFFFFF" d="M59.573,57.566c-0.048,0.057-0.092,0.121-0.119,0.186C59.491,57.711,59.531,57.643,59.573,57.566z"/>
					<path fill="#FFFFFF" d="M60.539,58.8l-0.057,0.368C60.536,58.98,60.544,58.874,60.539,58.8z"/>
					<path fill="#FFFFFF" d="M61.089,59.942c0.115-0.094,0.197-0.17,0.272-0.24l0.002-0.005L61.089,59.942z"/>
					<path fill="#FFFFFF" d="M46.938,47.192c-0.015-0.008-0.033-0.012-0.06-0.006C46.687,47.225,46.784,47.231,46.938,47.192z"/>
					<path fill="#FFFFFF" d="M52.334,49.801c-0.151,0.066-0.299,0.13-0.411,0.153C51.949,50.071,51.993,50.139,52.334,49.801z"/>
					<path fill="#FFFFFF" d="M41.75,43.44c0.004-0.004,0.005-0.005,0.011-0.01c-0.012-0.008-0.018-0.018-0.027-0.028L41.75,43.44z"
						/>
					<path fill="#FFFFFF" d="M51.748,49.758c-0.047,0.19,0.038,0.224,0.175,0.197C51.905,49.856,51.897,49.726,51.748,49.758z"/>
					<path fill="#FFFFFF" d="M64.486,63.878l0.016,0.066c0.039-0.04,0.073-0.07,0.101-0.091L64.486,63.878z"/>
					<path fill="#FFFFFF" d="M64.602,63.853l0.116-0.025C64.697,63.807,64.674,63.794,64.602,63.853z"/>
					<path fill="#FFFFFF" d="M64.963,63.773l-0.245,0.055C64.75,63.863,64.771,63.922,64.963,63.773z"/>
					<path fill="#FFFFFF" d="M63.641,62.483l-0.229,0.204C63.464,62.649,63.539,62.583,63.641,62.483z"/>
					<path fill="#FFFFFF" d="M63.238,62.206c0.032,0.13-0.258,0.665-0.009,0.643l0.183-0.161
						C63.037,62.955,63.68,61.918,63.238,62.206z"/>
					<path fill="#FFFFFF" d="M64.491,58.112l0.112,0.458c0.181-0.28,0.425-0.656,0.609-0.582
						C65.541,56.942,64.772,58.579,64.491,58.112z"/>
					<path fill="#FFFFFF" d="M63.94,56.894c0.26,0.046,0.333-0.336,0.472-0.459C64.104,56.548,64.028,56.578,63.94,56.894z"/>
					<path fill="#FFFFFF" d="M57.552,50.501l0.559-0.527C57.914,49.935,57.899,50.184,57.552,50.501z"/>
					<polygon fill="#FFFFFF" points="53.526,52.084 53.304,52.537 53.856,52.094 					"/>
					<polygon fill="#FFFFFF" points="56.67,47.498 56.799,47.472 56.405,47.472 					"/>
					<path fill="#FFFFFF" d="M45.745,36.958l-0.632,0.704C45.312,37.623,46.08,36.888,45.745,36.958z"/>
					<path fill="#FFFFFF" d="M40.432,33.006c0.284-0.384,0.368-0.729-0.041-0.481C40.449,32.674,40.292,33.039,40.432,33.006z"/>
					<polygon fill="#FFFFFF" points="27.625,18.022 27.942,17.892 27.58,17.903 					"/>
				</g>
			</g>
		</g>
	</g>
</g>
<g>
	<line fill="#FFFFFF" x1="73.661" y1="1.612" x2="0.827" y2="59.39"/>
	<g>
		<g>
			<g>
				<g>
					<path fill="#FFFFFF" d="M0,58.348c0.069,0.165,0.333,0.454,0.391,0.31l-0.336-0.578L0,58.348z"/>
					<path fill="#FFFFFF" d="M1.473,58.744c-0.075-0.35-0.282-0.905-0.74-1.318c0.272,0.596,0.077,0.412,0.416,1.11
						c-0.058,0.144-0.316-0.02-0.45-0.225c0.068,0.163-0.255,0.016-0.053,0.387c0.456,0.292,0.643,0.17,0.562-0.306
						C1.336,58.476,1.406,58.642,1.473,58.744z"/>
					<path fill="#FFFFFF" d="M12.443,51.359l-0.115-0.009C12.373,51.37,12.411,51.371,12.443,51.359z"/>
					<path fill="#FFFFFF" d="M19.068,46.567c-0.039,0.051-0.018,0.119,0.017,0.167C19.103,46.665,19.115,46.604,19.068,46.567z"/>
					<path fill="#FFFFFF" d="M20.614,46.272c-0.036,0.002-0.062,0.01-0.092,0.016C20.584,46.316,20.63,46.323,20.614,46.272z"/>
					<path fill="#FFFFFF" d="M12.443,51.359l0.3,0.027C12.621,51.208,12.556,51.331,12.443,51.359z"/>
					<path fill="#FFFFFF" d="M1.905,56.363c-0.016,0.054-0.007,0.125,0.016,0.21c0.011-0.046,0.025-0.087,0.043-0.125
						C1.944,56.42,1.926,56.395,1.905,56.363z"/>
					<path fill="#FFFFFF" d="M9.956,54.018L9.904,54.06c0.032,0.071,0.074,0.154,0.125,0.245L9.956,54.018z"/>
					<path fill="#FFFFFF" d="M7.854,55.814c0.064-0.02-0.268-0.473-0.402-0.681c0.116,0.204,0.148,0.318,0.132,0.387
						C7.65,55.605,7.736,55.7,7.854,55.814z"/>
					<path fill="#FFFFFF" d="M3.806,57.763l-0.013,0.109C3.794,57.841,3.807,57.802,3.806,57.763z"/>
					<path fill="#FFFFFF" d="M11.581,52.884c0.056,0.062,0.109,0.114,0.145,0.142C11.681,52.97,11.632,52.924,11.581,52.884z"/>
					<path fill="#FFFFFF" d="M69.511,1.536c0.024,0.032,0.04,0.051,0.062,0.079C69.55,1.56,69.53,1.525,69.511,1.536z"/>
					<polygon fill="#FFFFFF" points="73.75,1.726 73.735,1.777 73.923,2.03 					"/>
					<path fill="#FFFFFF" d="M23.062,45.25c-0.007-0.001-0.009-0.001-0.016-0.001C23.033,45.34,23.056,45.308,23.062,45.25z"/>
					<path fill="#FFFFFF" d="M41.161,30.363c-0.521-0.229-0.062-0.774-0.723-0.963C40.604,29.549,40.699,30.312,41.161,30.363z"/>
					<path fill="#FFFFFF" d="M2.007,56.377c0.025-0.028,0.052-0.056,0.085-0.075C2.04,56.32,2.015,56.343,2.007,56.377z"/>
					<path fill="#FFFFFF" d="M40.438,29.4l-0.003-0.004l-0.065-0.016C40.398,29.389,40.415,29.393,40.438,29.4z"/>
					<path fill="#FFFFFF" d="M27.459,41.33c-0.071-0.07-0.136-0.114-0.2-0.155C27.296,41.219,27.351,41.265,27.459,41.33z"/>
					<path fill="#FFFFFF" d="M23.53,43.426l0.131-0.008C23.596,43.405,23.558,43.413,23.53,43.426z"/>
					<path fill="#FFFFFF" d="M28.748,39.295c0.073-0.003,0.137,0.045,0.153-0.063c-0.024-0.018-0.042-0.029-0.062-0.039
						C28.864,39.271,28.856,39.323,28.748,39.295z"/>
					<path fill="#FFFFFF" d="M30.601,37.821c-0.037-0.026-0.07-0.041-0.105-0.062l-0.04,0.071L30.601,37.821z"/>
					<path fill="#FFFFFF" d="M64.042,6.22c0.139,0.092,0.273,0.208,0.4,0.328C64.164,6.257,64.348,5.929,64.042,6.22z"/>
					<path fill="#FFFFFF" d="M2.102,56.61c-0.077-0.12-0.105-0.188-0.095-0.233c-0.018,0.021-0.031,0.047-0.043,0.072
						C2.01,56.519,2.058,56.582,2.102,56.61z"/>
					<path fill="#FFFFFF" d="M26.067,35.76l0.346-0.168C26.297,35.615,26.172,35.677,26.067,35.76z"/>
					<path fill="#FFFFFF" d="M50.784,16.839l0.026-0.106C50.776,16.744,50.762,16.775,50.784,16.839z"/>
					<path fill="#FFFFFF" d="M27.236,34.833c0.176,0.113,0.303,0.16,0.408,0.173c-0.015-0.044-0.023-0.083-0.056-0.141
						L27.236,34.833z"/>
					<path fill="#FFFFFF" d="M64.446,6.552l-0.004-0.004L64.446,6.552z"/>
					<path fill="#FFFFFF" d="M65.557,3.966c-0.291,0.21,0.317,0.671,0.521,1.051c-0.205,0.43-0.493-0.303-0.842-0.509
						c-0.088,0.319,0.173,0.978-0.001,1.079c-0.088-0.086-0.146-0.097-0.204-0.245c0.144,0.636-0.639,0.544-0.438,1.326
						c-0.06-0.036-0.108-0.077-0.147-0.117c0.271,0.256,0.512,0.546,0.67,0.763c-0.118,0.11,0.056,0.551-0.291,0.21
						c0.086-0.05-0.029-0.208-0.087-0.355l-0.001,0.27c-0.551-0.45,0.03-0.331-0.289-0.734c-0.117,0.381-0.06,1.069-0.379,1.072
						c-0.463-0.5,0.319-0.545-0.32-0.809l0.467-0.039c-0.899-0.655,0.231-0.088-0.695-0.817c-0.524,0.164-0.234,0.627-0.757,0.79
						c0.144,0.367,0.376,0.414,0.521,0.781c-0.147,0.983-1.509-0.983-1.365,0.058c0.173,0.44,0.665,1.147,0.084,1.027l-0.375-0.682
						c-0.436,0.249,0.464,1.041-0.264,0.959c-0.115-0.294,0.147-0.441,0.032-0.466c-0.641-0.266,0.084,0.489-0.119,0.65l-0.464-0.5
						c-0.348,0.412-0.498,1.158-0.879,1.619c-0.101-0.178-0.154-0.407-0.391-0.485c-0.367,0.725-1.285,0.914-2.093,1.04l0.152,0.629
						c-0.053,0.034-0.257-0.135-0.274-0.267c-0.355-0.002,0.221,0.301,0.259,0.564c-0.098,0.13-0.373-0.135-0.404-0.335
						c-0.074,0.694-0.425,1.707-1.22,1.534l-0.03-0.199c-0.462,0.063,0.393,1.225-0.239,1.027l-0.009-0.126
						c-0.841,0.342-1.261,1.362-2.333,1.081c0.427,0.741-0.91,0.241-0.221,1.2c-0.753-0.149-0.772-0.402-1.565-0.275
						c-0.18,0.074,0.239,0.75,0.134,0.99l-0.387-0.479l0.155,0.702l-0.589-0.474l-0.072,0.259c0.09-0.025,0.316,0.103,0.416,0.25
						c-0.092,0.429-0.914,0.177-1.117-0.065l-0.304,0.907c-0.14-0.205-0.088-0.355-0.103-0.545c0.055,0.758-0.465-0.46-0.414,0.235
						c0.128,0.077,0.206,0.305,0.276,0.408c-0.385-0.17-0.736,0.104-0.896,0.432l-0.214-0.372c-0.533,0.285-0.856,0.939-1.384,1.348
						c0.311,0.006,0.725,0.618,0.616,0.794l-0.466-0.461c0.151,0.394,0.313,0.065,0.416,0.612c-0.242,0.096-0.592-0.476-0.611-0.731
						l-0.097,0.365c-0.135-0.141-0.143-0.266-0.283-0.472c0.154,0.395-0.816-0.187-0.52,0.475l-0.134-0.141
						c-0.526,0.41-0.624,0.774-1.03,1.138c0.341,0.447,0.097,0.481,0.253,0.938c-0.424,0.108-1.046,0.037-1.394,0.374
						c-0.091,0.429,0.218,0.435,0.307,0.791c-0.338-0.386-0.685-0.05-0.718-0.493c-0.401,0.424-0.515,0.539-0.829,1.318
						c0.193,0.115,0.319,0.131,0.392,0.297c-0.051,0.148-0.37,0.019-0.508-0.186l-0.005-0.063c-0.166,1.111-2.411,0.006-2.259,1.249
						l-0.004-0.064l-0.185,0.857c-0.299,0.124-0.093-0.418-0.471-0.523c-0.042,1.124-0.981,0.62-1.099,1.44
						c-1.304-0.895-1.228,1.11-2.32,0.745l0.25,0.256c0.089,0.375-0.281-0.038-0.425-0.027c0.185,0.206,0.337,0.141,0.378,0.355
						c-0.811,1.192-2.548,1.358-3.854,1.983c-0.463,0.246,0.915,1.625-0.123,1.363l-0.266-0.632
						c-0.323,1.269-1.686,1.302-2.066,2.462c-0.047-0.157-0.169-0.313-0.09-0.374c-0.467-0.242-0.638,0.477-0.397,0.786
						c-0.152,0.063-0.249-0.255-0.449-0.35c-0.345-0.088-0.044,0.817-0.431,0.514c-0.063-0.049-0.049-0.16-0.042-0.213
						c0.034,0.27-0.55,0.361-0.101,0.711c-0.464,0.031-0.42,0.648-0.863,0.581c0.229,0.608-0.698,0.173-0.204,0.898
						c-0.541-0.726-0.979-0.154-0.904,0.329c-0.106-0.265-0.341-0.091-0.502-0.447c-0.208,0.181-0.302,0.47,0.024,0.805
						c-1.071-0.532-0.259,1.317-1.346,0.409c-0.34,0.891-0.73,1.62-1.177,2.245c-0.54-0.724,0.583-0.577-0.03-1.299
						c-0.317,0.726-0.152,1.583-0.832,1.844c-0.217,0.015-0.163-0.37-0.211-0.528c-0.317,0.726-1.11,0.776-1.292,1.547
						c-0.051-0.067-0.055-0.181-0.048-0.274c-0.078,0.1-0.305,0.074-0.04,0.386l0.024-0.162c0.523,0.345,0.391,1.276,0.569,1.537
						c-0.567-1.05-0.665,0.15-1.329-1.218c-0.015,0.11,0.026,0.326,0.211,0.529c-0.144,0.012-0.273-0.09-0.372-0.41
						c-0.206,0.448,0.188,0.692-0.13,0.933c-0.122-0.157-0.107-0.267-0.22-0.475c0.083,0.428,0.165,0.857-0.203,0.935
						c-0.059-0.106-0.186-0.204-0.105-0.264c-0.415,0.406-0.13,1.419-0.859,1.521c-0.39-0.792-0.345-0.089-0.836-0.653l-0.128,0.386
						l0.333,0.199c-0.242,0.175-0.11,0.766-0.463,0.733l-0.018-0.379l-0.35,0.458l0.424,0.025c0.002,0.489,0.612,0.72,0.172,0.804
						c0.016-0.109-0.24,0.178-0.635-0.07l0-0.002c0.032,0.278,0.069,0.568-0.219,0.561c-0.193-0.152-0.477-0.676-0.605-0.777
						c0.274,0.58-0.44,0.57-0.171,1.206c-0.049-0.161-0.29-0.47-0.355-0.52l0.219,0.473c-0.209-0.041-0.273-0.09-0.45-0.349
						c-0.383,0.186,0.692,0.66,0.052,0.647c0.005-0.056-0.057-0.104-0.042-0.215c-0.521,0.142-0.55,0.847-1.062,0.935
						c-0.572-0.505,0.197-0.392-0.317-0.792c-0.43,0.515-0.505,1.551-1.113,1.807l0.144-0.008c0.59,0.885-0.696-0.117-0.637,0.475
						c0.013-0.111-0.285-0.525-0.229-0.42c-0.447,0.137-0.535,0.757-0.844,1.429l-0.106-0.265c-0.352-0.031-0.616,0.31-0.91,0.385
						c0.104,0.264-0.047,0.328,0.274,0.579c-1.633-0.685-0.759,1.665-2.157,1.123c0.069-0.059,0.021-0.321-0.036-0.276l-0.35,0.597
						c0.328,0.331,0.24,0.167,0.57,0.364c0.106,0.266,0.095,0.545-0.03,0.645c0.037-0.42-0.463-0.58-0.722-0.704
						c0.104,0.098,0.168,0.247,0.266,0.354c-0.775-0.435,0.534,0.763-0.171,0.616L8.036,53.01c-0.058,0.205,0.017,0.554-0.171,0.616
						c-0.393-0.371-0.011-0.31-0.275-0.662c-0.186,0.187,0.226,1.113-0.291,0.843c-0.005-0.186,0.118-0.287,0.113-0.471
						c-0.591-0.332-0.516-0.188-0.728-0.147l0.023-0.001l-0.523,0.052l0.194,0.063c0.61,1.295-0.363,0.613-0.14,1.602
						c-0.202-0.943-0.255-0.436-0.606-0.931c-0.193-0.062-0.444-0.104-0.512-0.267c0.141,0.512-0.511-0.086-0.297,0.656
						c-0.131-0.144-0.186,0.123-0.454-0.29c-0.117,0.288,0.261,0.226,0.395,0.432c0.088,0.781-1.27-0.024-1.171,1.064
						c-0.171,0.616,0.163,1.191-0.01,1.745c-0.321-0.144-0.337-0.639-0.337-0.639c-0.383-0.062-0.504,0.101-0.558,0.429
						c-0.067-0.164-0.197-0.245-0.392-0.37c-0.123,0.163,0.338,0.639-0.045,0.575c-0.1-0.198-0.271-0.506-0.332-0.736
						c-0.071,0.285-0.025,0.713-0.104,1c-0.261-0.226-0.207-0.494-0.278-0.721c-0.117,0.288-0.358,0.678-0.089,1.151l0.255,0.042
						c-0.061,0.082-0.327-0.33-0.331-0.452c-0.08-0.475,0.378-0.062,0.51,0.083l-0.057,0.205c0.849,0.787,0.426-0.572,0.738-0.735
						l0.404,0.741l-0.151-0.761c0.193,0.123,0.522,0.455,0.466,0.658c0.449,0.168-0.012-0.368,0.439-0.141
						c0.062,0.042,0.079,0.08,0.083,0.119l0.035-0.344c0.072,0.166,0.396,0.435,0.206,0.433c0.639,0.106,0.161-0.924,0.681-0.532
						l0.003,0.062c0.297-0.595-0.334-0.515-0.425-1.357l1.175,0.991l-0.333-0.515c0.062-0.021,0.187-0.062,0.321,0.144
						c-0.078-0.471-0.196-0.184-0.336-0.576c0.58,0.25,0.485-0.717,1.143,0.004c-0.205-0.431-0.447-0.103-0.397-0.555
						c0.722,0.763,0.178-0.37,0.69-0.164c0.27,0.475-0.111,0.412,0.403,0.62c-0.438-0.818,0.541-0.174,0.613-0.455
						c-0.443-0.576,0.205-0.549,0.357-0.979c0.133,0.207,0.818-0.14,1.264-0.158l0.067,0.102c-0.402-0.619-0.025-0.741,0.093-1.028
						C9.63,53.81,9.7,53.975,9.707,54.22l0.197-0.161c-0.099-0.222-0.114-0.368-0.037-0.536l0.291,0.47
						c0.246-0.234,0.132-0.93,0.701-0.913c-0.299-0.417-1.157-0.902-1.009-1.456c0.186,0.206,0.493,0.567,0.469,0.73
						c0.009-0.053-0.033-0.268,0.103-0.225l0.145,0.479c0.283,0.037-0.161-0.369-0.009-0.434c0.243,0.312,0.267,0.148,0.444,0.408
						c-0.008,0.055-0.209-0.042-0.161,0.117c0.184-0.056,0.499-0.006,0.74,0.184c-0.152-0.167-0.331-0.417-0.26-0.538
						c0.247-0.233,0.386,0.3,0.667,0.336c-0.106-0.266,0.239-0.177-0.124-0.643c0.08-0.06,0.265,0.145,0.395,0.247
						c-0.025-0.313,0.594-0.566,0.049-0.936l-0.061-0.004c-0.001-0.015,0.006-0.021,0.006-0.038l-0.001,0.001l0.001-0.001
						c0.085-0.816,1.142-0.479,1.431-1.03l0.122,0.155c0.126-0.388,0.51-0.575,0.436-1.059c0.079-0.062,0.41,0.135,0.522,0.346
						c0.111-0.278-0.004-0.47,0.493-0.448c0.009,0.433,0.26,0.183-0.053,0.364c0.37-0.076,0.626,0.124,0.575-0.524
						c0.218,0.473,0.595,0.341,0.627,0.123l-0.411-0.137c0.096-0.17,0.247-0.233,0.399-0.299l0.346,0.575
						c1.044,0.205,0.12-1.853,1.374-1.119c-0.146-0.478-0.498-0.023-0.708-0.551c0.305-0.127,1.158,0.415,1.237,0.355
						c0.57,0.018-0.286-1.014,0.228-1.1c-0.193-0.149-0.63-0.612-0.502-0.999c0.304-0.129,0.925,0.537,0.886,0.811
						c-0.047,0.063-0.123,0.027-0.17-0.038c-0.027,0.131-0.069,0.295,0.189,0.418l-0.115-0.212c0.274,0.092,0.601-0.2,0.763,0.169
						c0.047-0.327-0.162-0.369-0.378-0.354c0.533,0.016,0.506-0.388,0.978-0.468c-0.133-0.061-0.355-0.241-0.301-0.28
						c0.665-0.152-0.067-0.521,0.195-0.862c0.411,0.136,0.47,0.729,0.611,0.231c0.353,0.033,0.434,0.46,0.474,0.675
						c0.016-0.596,0.747-0.208,0.971-0.279l-0.039,0.275c0.023-0.164,0.103-0.223,0.183-0.284l-0.385-0.301
						c0.144-0.008,0.224-0.069,0.345,0.087c-0.098-0.319-0.564-0.561-0.639-1.044c0.274,0.091,0.216-0.501,0.65-0.042
						c-0.521,0.141,0.436,0.462,0.17,0.802c0.017-0.109,0.096-0.168,0.241-0.177c0.058,0.044,0.068,0.113,0.065,0.161
						c0.722,0.146-0.271-0.694,0.123-0.988c0.171,0.317,0.508,0.457,0.523,0.348c-0.16,0.117-0.442-0.405-0.469-0.731
						c0.419,0.021,0.141-0.374,0.291-0.452l-0.229,0.016c-0.171-0.318-0.019-0.379,0.084-0.604c0.187,0.205-0.038,0.273,0.099,0.32
						c-0.197-0.641,0.833,0.163,0.839-0.377c0.273,0.09,0.427,0.513,0.637,0.555c0.013-0.598,0.626,0.124,0.704-0.423
						c-0.387-0.302-0.33-0.198-0.398-0.738l-0.308,0.673l-0.1-0.807c-0.16,0.118-0.142,0.496-0.287,0.506
						c-0.083-0.43-0.026-0.324-0.347-0.575c0.658,0.392,0.164-0.662,0.71-0.479l0.727,0.932c0.698,0.118,0.282-0.998,0.948-1.146
						l-0.283-0.039c-0.227-0.419,0.257-0.287,0.294-0.56c0.231,0.321,0.418,0.356,0.637,0.496c-0.19-0.223,0.369-0.259-0.078-0.911
						L27.72,40.5c0.521-0.142-0.255-1.233,0.202-1.424c0.154,0.425,0.498,0.51,0.438,0.949c0.127-0.096,0.284-0.128,0.116-0.344
						c0.227,0.136,0.016-0.691,0.363-0.489c-0.055-0.177-0.295-0.515-0.135-0.601c0.065,0.051,0.121,0.154,0.121,0.154
						c-0.121-0.154,0.054-0.382-0.34-0.627c1.15,0.66,1.019-0.922,2.01-0.359c0.19-0.319,0.439-0.679,0.668-0.898
						c0.058,0.105,0.122,0.155,0.049,0.16c0.569,0.017-0.495-1.054,0.148-1.041c0.595,0.342,0.009,0.434,0.282,0.525
						c0.861,0.975,0.358-0.51,1.091-0.124l-0.016,0.11c0.474,0.188,0.181-0.772,0.565-0.958c0,0,0.055,0.103,0.12,0.155
						c-0.189-0.696,0.097-1.203,0.296-1.596c0.218,0.476,0.024,0.324,0.405,0.682c0.095-0.169-0.557-0.618-0.366-0.953
						c0.265,0.146,0.618,0.175,0.987,0.586l-0.246,0.233c0.579,0.451,0.328-0.291,0.544-0.305l0.176,0.258
						c0.343-0.401-0.14-1.021,0.332-1.323l-0.191-0.149c-0.246-0.799,0.472,0.185,0.35-0.458l0.562,0.562
						c0.039-0.274,0.077-1.035,0.266-1.375c0.204,0.585,0.061,1.082,0.072,1.516c0.16-0.119,0.494-0.466,0.333-0.835
						c-0.015,0.109,0.026,0.324-0.112,0.278c-0.194-0.638-0.133-1.077,0.187-1.312c0.896,1.243,1.049-0.34,2.014,0.413
						c0.197-0.879,1.24-0.676,1.824-1.254c-0.967-0.753,0.166-0.175-0.633-1.102c0.101-0.18,0.17-0.209,0.232-0.158l0.906,0.214
						c0.328,0.194,0.026,0.324,0.21,0.528c0.385-0.186,0.459,0.298,0.877,0.381c-0.316-0.308-0.276-0.581,0.014-0.598l-0.612-0.234
						c0.051-0.872,1.032,0.491,1.091-0.379l0.094,0.417c0.095-0.365,0.875-0.685,0.496-1.638c0.129,0.078,0.393,0.296,0.344,0.447
						c0.655-0.332,0.605-1.815,1.42-1.688l0.143,0.268c0.051-0.151-0.166-0.585,0.152-0.454c0.07,0.102,0.144,0.268,0.203,0.242
						c-0.008-0.125-0.046-0.632,0.202-0.606l0.09,0.358c0.793-0.129,0.335-1.312,0.669-1.838c0.546,0.69,1.157,0.571,1.461,0.512
						l0.069,0.104c0.708-0.423,0.635-1.435,1.013-2.176c0.962,0.457,1.496-0.676,2.421-0.726c-0.189-0.053-0.412-0.549-0.361-0.702
						c0.25,0.03,0.004-0.783,0.484-0.133l-0.059,0.027c0.597,0.538,0.751,0.146,0.987-0.014l-0.62-0.856
						c1.538,0.741,1.177-1.654,2.35-0.828c-0.023-0.318,0.153-0.454,0.128-0.771l0.345,0.45c0.479-0.196,0.718-0.294,1.116-0.783
						l0.153,0.395c0.294-0.187-0.672-1.551-0.442-1.776l0.601,0.603c0.466-0.386,1.407-0.186,1.399-1.158
						c0.069,0.103,0.208,0.306,0.152,0.393c0.237-0.16,1.219-0.236,0.417-1.081c0.475,0.587,0.535-0.33,0.584-0.794l0.306,0.468
						c-0.227-0.729-0.34-0.887-0.161-1.281c0.117,0,0.34,0.3,0.156,0.264c0.42,0.04-0.143-0.561,0.331-0.558l0.114,0.365
						c0.272-0.161,0.133-0.295,0.011-0.728c0.015-0.297,0.552-0.259,0.902,0.107c-0.158-0.267-0.279-0.695-0.044-0.696
						c0.138,0.134,0.159,0.268,0.168,0.334c0.646-0.028,0.207-0.991,0.829-0.786c0.121,0.14,0.196,0.198,0.254,0.223
						c-0.334,0.248-0.615,0.432-0.616,0.381c0.319,0.402,0.638,0.265,0.87,0.986c-0.03-0.471-0.192-1.417,0.215-1.431
						c0.043,0.029,0.086,0.058,0.145,0.113l0.009,0.066c0.091-0.007,0.114-0.086,0.11-0.193c0.134,0.001,0.225,0.009,0.309-0.047
						c0.294,0.309,0.444-0.06,0.588-0.148c-0.36-0.432-0.132-0.497-0.581-0.733c0.045,0.015,0.017,0.072-0.056,0.16
						c-0.009,0.028-0.027,0.054-0.02,0.09L62.75,12.41c-0.076,0.081-0.181,0.18-0.303,0.288c-0.074-0.306-0.115-0.58,0.224-0.451
						c-0.157-0.336-0.314-0.686-0.381-0.856c0.667,0.472,1.276,0.529,1.625,0.87c0.205-0.565,0.814-0.912,0.41-1.939
						c0.03-0.197,0.319,0.133,0.465,0.23c0,0.135-0.088,0.184-0.029,0.332c0.06-0.393,0.609-0.618,0.205-1.239
						c0.494,0.033,0.261,0.66,0.58,0.252l0.087,0.219c1.509,0.308,0.091-2.476,1.892-1.973c-0.117-0.025-0.174-0.036-0.263-0.123
						c1.396-0.255,1.632-2.094,3.257-2.032c0.408-0.051,0.145-0.444,0.09-0.857l0.436,0.426l-0.146-0.773
						c0.09-0.723,1.626,0.602,1.542-0.563L72.12,3.956c0.232-0.086,0.437-0.653,0.696-0.262c-0.027-0.073-0.202-0.379,0.002-0.271
						l0.202,0.243l0.118-0.785c0.494-0.101,0.725,1.027,1.277,0.667c0.115-0.247-0.028-1.153-0.231-1.261
						c-0.087,0.049-0.319,0.002-0.521-0.242l0.072-0.268C73.188,1.023,72.73,0.169,71.896,0l0.055,0.683l-0.377-0.277l0.234-0.222
						c-0.406-0.22-0.264,0.146-0.205,0.429c-0.173-0.169-0.319-0.268-0.435-0.291l0.26,0.93c-0.263-0.257-0.317-0.671-0.64-0.672
						c0.119,0.433,0.64,0.535,0.58,0.928c-0.406-0.218-0.578-0.521-0.521-0.105c-0.173-0.169-0.232-0.317-0.231-0.452
						c0.029,0.344-0.319,0.409-0.089,0.858c-0.474-0.291-0.421,0.507-0.953-0.195c0.084,0.202,0.166,0.75,0.052,0.888
						c-0.405-1.025-0.553,0.359-1.189-0.58c0.404,0.891-0.408,0.862-0.41,1.535c-0.028-0.074-0.087-0.222-0.028-0.207
						c-0.233,0.085-0.465-0.096-0.695-0.143c0.463,0.633,0.286,1.002,0.432,1.504c-0.697-0.412-0.435-0.83-0.957-1.343
						c0.406,0.489,0,0.81,0.406,1.163c-0.465-0.229-0.291-0.059-0.784-0.497c0.579,0.792-0.059,0.258,0.172,0.844
						C66.02,4.6,65.936,4.111,65.845,4.563C65.528,4.432,65.557,3.966,65.557,3.966z M60.051,10.496l-0.007-0.009
						c0.048-0.055,0.089-0.102,0.116-0.132C60.137,10.384,60.106,10.425,60.051,10.496z M59.505,10.94
						c0.081-0.036,0.167-0.099,0.252-0.172c0.14,0.137,0.244,0.31,0.182,0.346C59.889,10.989,59.689,11.003,59.505,10.94z
						 M63.092,13.068c-0.038,0.131-0.135,0.068-0.219-0.013c0.035-0.041,0.072-0.093,0.111-0.174
						c-0.01-0.019-0.021-0.041-0.032-0.062C63.01,12.91,63.063,12.997,63.092,13.068z"/>
					<path fill="#FFFFFF" d="M62.791,12.366c0.005-0.02-0.003-0.044,0.011-0.061c-0.049-0.025-0.092-0.044-0.131-0.058l0.079,0.163
						L62.791,12.366z"/>
					<path fill="#FFFFFF" d="M12.308,51.35l0.02,0.001c-0.023-0.01-0.046-0.02-0.074-0.043
						C12.278,51.322,12.289,51.336,12.308,51.35z"/>
					<polygon fill="#FFFFFF" points="51.226,16.135 51.315,16.246 51.286,16.11 					"/>
					<path fill="#FFFFFF" d="M8.073,52.246c-0.037-0.034-0.08-0.065-0.129-0.081C7.969,52.193,8.018,52.219,8.073,52.246z"/>
					<path fill="#FFFFFF" d="M6.684,53.188l-0.31-0.01C6.524,53.204,6.617,53.2,6.684,53.188z"/>
					<path fill="#FFFFFF" d="M5.502,53.769c0.048,0.087,0.091,0.148,0.13,0.205l0.004,0.001L5.502,53.769z"/>
					<path fill="#FFFFFF" d="M21.122,40.535c0.012-0.013,0.021-0.029,0.023-0.051C21.169,40.326,21.134,40.409,21.122,40.535z"/>
					<path fill="#FFFFFF" d="M17.168,45.348c-0.013-0.12-0.025-0.238-0.012-0.33C17.044,45.052,16.972,45.096,17.168,45.348z"/>
					<polygon fill="#FFFFFF" points="26.029,35.778 26.034,35.787 26.067,35.76 					"/>
					<path fill="#FFFFFF" d="M17.384,44.85c-0.155-0.021-0.21,0.055-0.228,0.168C17.249,44.993,17.367,44.973,17.384,44.85z"/>
					<path fill="#FFFFFF" d="M0.974,57.036l-0.063,0.02c0.024,0.028,0.04,0.055,0.05,0.075L0.974,57.036z"/>
					<path fill="#FFFFFF" d="M0.961,57.131l-0.013,0.095C0.973,57.207,0.992,57.187,0.961,57.131z"/>
					<path fill="#FFFFFF" d="M0.923,57.427l0.025-0.201C0.908,57.256,0.849,57.281,0.923,57.427z"/>
					<path fill="#FFFFFF" d="M2.47,56.181l-0.111-0.172C2.376,56.049,2.412,56.104,2.47,56.181z"/>
					<path fill="#FFFFFF" d="M2.839,55.813c-0.125,0.04-0.513-0.148-0.569,0.059l0.088,0.137C2.233,55.721,2.96,56.155,2.839,55.813
						z"/>
					<path fill="#FFFFFF" d="M6.098,56.444l-0.441,0.142c0.194,0.123,0.454,0.29,0.332,0.453C6.82,57.207,5.598,56.729,6.098,56.444
						z"/>
					<path fill="#FFFFFF" d="M7.347,55.854c-0.12,0.224,0.198,0.246,0.265,0.35C7.605,55.957,7.602,55.896,7.347,55.854z"/>
					<path fill="#FFFFFF" d="M14.964,49.814l0.3,0.416C15.359,50.061,15.143,50.074,14.964,49.814z"/>
					<polygon fill="#FFFFFF" points="14.777,46.588 14.443,46.448 14.669,46.867 					"/>
					<polygon fill="#FFFFFF" points="17.902,48.761 17.886,48.867 18.005,48.536 					"/>
					<path fill="#FFFFFF" d="M30.58,38.472l-0.434-0.459C30.121,38.176,30.541,38.747,30.58,38.472z"/>
					<path fill="#FFFFFF" d="M35.703,33.589c0.256,0.199,0.537,0.234,0.44-0.084C35.992,33.569,35.716,33.475,35.703,33.589z"/>
					<polygon fill="#FFFFFF" points="52.901,21.255 52.921,21.509 53.021,21.205 					"/>
				</g>
			</g>
		</g>
	</g>
</g>
</svg>
