<?xml version="1.0" encoding="utf-8"?>
<!-- Generator: Adobe Illustrator 16.0.0, SVG Export Plug-In . SVG Version: 6.00 Build 0)  -->
<!DOCTYPE svg PUBLIC "-//W3C//DTD SVG 1.1//EN" "http://www.w3.org/Graphics/SVG/1.1/DTD/svg11.dtd">
<svg version="1.1" id="Layer_1" xmlns="http://www.w3.org/2000/svg" xmlns:xlink="http://www.w3.org/1999/xlink" x="0px" y="0px"
	 width="100.408px" height="89.124px" viewBox="0 0 100.408 89.124" enable-background="new 0 0 100.408 89.124"
	 xml:space="preserve">
<path fill="#FFFFFF" d="M52.045,14.996c0.222,1.029,0.822,1.976,1.262,2.955c0.875-0.538,1.839-0.96,2.595-1.63
	c2.475-2.184,4.784-4.56,7.31-6.674c5.511-4.611,11.987-6.467,19.023-6.343c4.142,0.072,7.8,1.566,10.551,4.821
	c1.854,2.194,4.126,4.282,5.189,6.855c2.585,6.238,3.106,12.824,1.584,19.529c-1.142,5.047-2.761,9.894-5.854,14.055
	c-3.654,4.924-6.974,10.16-12.116,13.766c-2.174,1.533-2.24,2.724-0.764,4.935c2.567,3.842,3.062,8.145,1.48,12.312
	c-1.694,4.457-7.565,4.934-10.651,1.188c-0.834-1.014-1.648-2.038-2.432-3.092c-0.79-1.063-1.655-1.077-2.575-0.243
	c-1.342,1.217-2.682,2.446-3.974,3.715c-3.339,3.276-6.766,6.57-11.466,7.491c-3.927,0.771-7.967,0.941-11.454-1.876
	c-0.717-0.58-1.613-0.974-2.482-1.316c-4.979-1.944-9.089-5.129-12.299-8.855c-2.63,1.488-4.956,3.033-7.48,4.118
	c-0.97,0.419-2.505,0.073-3.557-0.423c-1.819-0.854-3.499-2.032-5.162-3.197c-1.691-1.184-1.544-4.242-0.358-6.398
	c1.66-3.02,2.951-6.251,4.274-9.448c0.16-0.39-0.425-1.151-0.74-1.694c-1.463-2.56-3.041-5.061-4.426-7.665
	C5.92,48.868,4.48,45.77,2.967,42.712c-1.858-3.756-2.774-7.638-2.938-11.934c-0.194-5.195,0.616-10.245,1.251-15.293
	c0.436-3.468,1.948-6.847,5.022-9.093C6.863,5.982,7.19,5.248,7.742,4.823c0.878-0.678,1.786-1.477,2.809-1.767
	c3.785-1.076,7.582-2.314,11.456-2.817c3.512-0.454,7.133-0.16,10.694,0.041c4.29,0.239,8.022,2.117,11.435,4.661
	c0.854,0.635,1.664,1.393,2.326,2.234 M27.118,73.231c2.018,1.853,3.845,3.858,5.992,5.407c2.139,1.543,4.792,2.369,6.88,3.961
	c5.489,4.197,12.837,2.207,16.967-1.427c4.769-4.193,9.222-8.762,13.811-13.166c3.764-3.611,7.71-7.046,11.236-10.878
	c2.879-3.13,5.887-6.159,8.098-9.95c1.471-2.524,3.055-4.909,3.793-7.778c0.508-1.952,1.126-3.871,1.618-5.822
	c0.34-1.342,0.771-2.712,0.771-4.073c-0.012-4.295-0.588-8.487-1.729-12.695c-1.671-6.144-9.229-10.053-13.994-9.843
	c-4.843,0.214-9.257,1.883-13.445,4.396c-4.819,2.889-8.448,7.017-12.218,11.07c-6.351,6.835-12.83,13.546-19.285,20.277
	c-4.473,4.66-8.996,9.268-13.5,13.901c-1.469,1.514-3.323,2.793-4.332,4.573c-2.009,3.534-3.594,7.323-5.266,11.048
	c-1.063,2.37-0.448,3.596,2.143,3.956c1.228,0.171,2.895,0.151,3.756-0.546c2.505-2.029,4.931-4.262,6.974-6.763
	c2.556-3.123,4.344-6.945,7.104-9.848c5.059-5.319,8.4-12.009,13.745-17.076c2.457-2.328,4.632-4.973,6.859-7.545
	c1.085-1.249,1.833-2.838,3.018-3.954c2.353-2.217,5.039-4.075,7.352-6.335c3.192-3.121,6.37-6.015,10.722-7.58
	c3.401-1.222,6.766-1.981,10.097-0.848c5.203,1.781,7.647,5.565,6.372,11.762c-0.571,2.792-1.88,5.501-3.225,8.049
	c-1.994,3.775-4.157,7.474-6.533,11.012c-2.104,3.133-5.606,5.268-6.386,9.374c-0.066,0.362-0.721,0.637-1.134,0.905
	c-1.281,0.836-2.783,1.439-3.841,2.505c-4.11,4.171-8.188,8.379-12.066,12.771c-3.717,4.216-8.388,3.775-12.806,2.522
	c-4.196-1.19-8.392-2.867-11.738-6.063c-1.208-1.155-2.544-1.269-3.452,0.664C28.833,70.568,27.952,71.819,27.118,73.231z
	 M44.611,10.677c-4.385-5.386-10.578-6.775-16.84-6.943c-4.112-0.109-8.287,1.303-12.389,2.225
	C8.303,7.55,4.594,14.024,4.523,20.185c-0.031,2.618,0.062,5.32-0.543,7.823c-1.001,4.114-0.144,7.866,1.516,11.448
	c2.388,5.148,5.069,10.153,7.675,15.194c0.621,1.194,1.439,2.285,2.248,3.555c1.259-1.032,2.544-1.665,3.193-2.711
	c0.894-1.453,3.113-2.285,2.24-4.71c-1.987-5.533-3.668-11.188-5.846-16.646c-2.427-6.097-2.026-11.926,0.713-17.698
	c1.617-3.411,4.395-5.059,8.105-5.594c3.356-0.485,6.014,0.865,8.774,2.333c4.001,2.133,6.085,6.082,8.836,9.405
	c1.227,1.479,2.54,2.887,3.839,4.362c2.077-1.903,3.912-3.59,5.476-5.028c-0.511-1.611-0.875-2.766-1.243-3.919
	C49.045,16.56,45.387,11.627,44.611,10.677z M23.912,49.358c0.974-0.709,1.484-0.978,1.872-1.379
	c4.009-4.184,8.006-8.376,11.984-12.588c1.25-1.321,2.454-2.684,3.631-4.067c0.873-1.028,0.951-2.006-0.128-3.068
	c-1.333-1.309-2.61-2.702-3.744-4.194c-2.735-3.602-5.225-7.344-10.019-8.588c-3.308-0.859-7.383,0.53-8.548,3.631
	c-1.753,4.656-1.971,9.37-0.292,14.166c1.056,3.021,1.749,6.171,2.723,9.229C22.092,44.722,22.992,46.88,23.912,49.358z
	 M72.425,50.309c0.631-0.351,1.091-0.47,1.34-0.768c1.991-2.377,4.112-4.67,5.867-7.211c3.294-4.771,6.272-9.711,7.348-15.615
	c0.511-2.809-0.864-6.123-3.498-7.155c-4.59-1.804-8.728-0.096-12.397,2.361c-2.961,1.977-5.306,4.879-8.096,7.157
	c-1.518,1.241-1.547,2.193-0.564,3.779c2.681,4.332,5.215,8.754,7.771,13.162C70.979,47.374,71.646,48.801,72.425,50.309z
	 M33.301,63.923c2.038,1.434,3.713,3.031,5.696,3.895c3.128,1.367,6.397,2.785,9.725,3.198c5.638,0.701,8.44-4.048,11.781-7.527
	c0.19-0.198-0.018-0.97-0.233-1.357c-2.232-3.906-4.418-7.843-6.799-11.653c-1.355-2.168-3.055-4.114-4.952-6.627
	C43.431,50.562,38.542,57.008,33.301,63.923z M70.648,53.295c-2.424-4.001-4.819-7.96-7.204-11.924
	c-0.378-0.618-0.682-1.284-1.06-1.899c-0.928-1.521-1.851-3.045-2.828-4.531c-0.924-1.395-1.929-1.009-2.825,0.037
	c-1.324,1.545-2.642,3.102-3.874,4.714c-0.838,1.087-0.717,2.077,0.412,3.046c0.698,0.606,1.2,1.502,1.643,2.355
	c0.573,1.112,0.952,2.336,1.508,3.466c0.409,0.843,0.981,1.604,1.465,2.413c1.815,3.01,3.619,6.025,5.646,9.399
	C66.023,57.894,68.107,55.822,70.648,53.295z M76.687,67.687c-1.88,1.841-3.596,3.471-5.232,5.174
	c-0.265,0.276-0.412,1.087-0.22,1.326c1.255,1.568,2.481,3.221,3.997,4.498c1.067,0.9,2.104,0.423,2.926-0.989
	C80.303,74.018,78.822,71.016,76.687,67.687z"/>
</svg>
