<?xml version="1.0" encoding="utf-8"?>
<!-- Generator: Adobe Illustrator 16.0.0, SVG Export Plug-In . SVG Version: 6.00 Build 0)  -->
<!DOCTYPE svg PUBLIC "-//W3C//DTD SVG 1.1//EN" "http://www.w3.org/Graphics/SVG/1.1/DTD/svg11.dtd">
<svg version="1.1" id="Layer_1" xmlns="http://www.w3.org/2000/svg" xmlns:xlink="http://www.w3.org/1999/xlink" x="0px" y="0px"
	 width="121.793px" height="170.421px" viewBox="0 0 121.793 170.421" enable-background="new 0 0 121.793 170.421"
	 xml:space="preserve">
<path d="M66.697,49.529c2.623,2.3,6.111,3.738,7.512,7.302c0.281,0.723,0.539,1.787,0.219,2.376
	c-2.331,4.329-2.048,8.944-1.649,13.542c0.442,5.131,1.255,10.233,1.588,15.375c0.234,3.572,0.635,6.728,3.101,9.732
	c2.823,3.429,4.895,7.521,7.068,11.455c1.721,3.123,2.905,6.581,5.705,8.961c1.106,0.938,2.48,1.56,3.561,2.522
	c3.49,3.119,5.058,7.83,8.911,10.758c4.087,3.106,6.328,8.437,11.921,9.867c1.799,0.461,1.968,2.547,1.318,4.202
	c-0.641,1.636-0.522,2.516,1.021,3.693c3.147,2.404,5.376,6.235,4.698,9.894c-0.755,4.031-2.927,8.379-7.418,9.905
	c-4.378,1.482-9.111,1.809-13.483,0.434c-5.479-1.726-10.773-4.111-16.023-6.475c-4.995-2.242-9.917-4.675-14.718-7.308
	c-4.507-2.479-8.916-5.171-13.176-8.057c-4.6-3.115-9.009-6.538-13.458-9.874c-5.692-4.258-11.365-8.544-17.013-12.861
	c-3.367-2.578-6.672-5.24-10.003-7.869c-5.368-4.231-10.744-8.459-16.091-12.725c-0.231-0.189-0.275-0.71-0.284-1.082
	c-0.021-0.943,0.048-1.882,0.052-2.829c0.043-5.646,5.576-10.657,11.027-9.916c0.875-3.396,3.183-5.76,5.68-8.035
	c3.381-3.087,6.951-6.043,9.891-9.529c4.109-4.881,5.639-11.159,7.731-17.067c1.093-3.067,1.605-6.338,2.643-9.429
	c0.437-1.306,1.309-2.972,2.41-3.459c2.924-1.282,6.024-2.479,9.946-0.75c-0.64-1.982-1.081-3.334-1.507-4.695
	c-0.577-1.848-1.484-3.675-1.614-5.564c-0.159-2.274,0.425-4.871,2.646-5.884c2.121-0.972,4.573-0.824,6.46,1.11
	c2.036,2.081,4.561,2.641,7.397,2.75c1.655,0.06,3.76,0.435,4.817,1.516c3.728,3.839,2.376,8.894-2.682,10.739
	c-1.943,0.708-3.149,1.845-3.478,3.895C63.364,47.366,65.213,48.231,66.697,49.529z M63.41,51.365
	c-1.085-0.828-2.621-2.002-3.999-0.008c-0.129,0.188-0.943,0.104-1.262-0.111c-0.295-0.198-0.55-0.79-0.483-1.143
	c0.429-2.288,0.921-4.563,1.446-6.831c0.618-2.703,2.366-4.241,4.911-5.194c0.855-0.321,1.4-1.518,2.09-2.313
	c-0.802-0.66-1.537-1.428-2.416-1.944c-0.479-0.284-1.354-0.419-1.789-0.162c-2.671,1.574-4.289,0.072-5.926-1.769
	c-0.652-0.732-1.594-1.198-2.412-1.785c-1.549-1.113-3.123-1.095-4.31,0.422c-0.993,1.247,0.064,4.51,1.75,5.022
	c1.931,0.585,2.32,2.158,2.928,3.624c0.191,0.464,0.021,1.553-0.267,1.679c-2.458,1.091-1.718,3.488-2.178,5.333
	c-0.14,0.57,0.615,1.4,1.029,2.062c0.453,0.735,1.051,1.385,1.43,2.155c0.054,0.113-0.879,1.057-1.194,0.985
	c-2.888-0.718-3.919-2.044-4.322-5.056c-0.058-0.393-0.6-1.017-0.919-1.017c-1.927-0.017-3.877-0.029-5.78,0.241
	c-2.082,0.299-2.736,1.955-1.145,3.265c2.096,1.731,4.587,3.005,6.989,4.324c1.465,0.805,3.056,1.398,4.632,1.958
	c1.556,0.552,3.17,0.947,4.993,1.476c0.297,1.605-1.095,1.729-2.288,1.727c-4.377-0.023-8.369-1.298-11.881-3.963
	c-0.313-0.235-0.596-0.5-0.901-0.74c-2.679-2.104-3.668-1.804-4.721,1.444c-1.43,4.418-2.531,8.975-4.325,13.237
	c-2.503,5.923-6.053,11.109-11.584,14.801c-2.322,1.545-4.207,3.889-6.021,6.093c-2.747,3.323-1.563,7.018,0.059,10.174
	c3.662,7.095,9.587,11.712,16.899,14.674c2.964,1.204,5.718,2.904,8.615,4.285c0.53,0.251,1.414,0.281,1.894,0.004
	c7.952-4.642,16.193-4.299,24.432-1.454c3.899,1.346,7.618,3.261,11.292,5.169c3.475,1.812,6.773,3.964,10.174,5.917
	c0.414,0.235,0.992,0.182,1.545,0.271c0.232-3.031-0.457-5.335-2.522-7.536c-2.179-2.326-3.432-5.385-4.774-8.394
	c-1.902-4.264-4.45-8.366-7.414-11.951c-2.752-3.329-3.037-7.089-3.511-10.935c-0.551-4.507-1.026-9.033-1.331-13.564
	c-0.294-4.327-0.314-8.67-0.474-13.429c-3.339-1.205-7.994-1.51-10.926-5.471c3.191,0.41,6.256,2.099,10.379,0.281
	C67.416,54.977,65.544,53.001,63.41,51.365z M58.398,137.938c0.774,0.992,1.927,1.698,2.956,2.466
	c3.678,2.725,8.1,3.419,12.345,4.646c1.086,0.318,1.973,1.348,2.939,2.069c0.372,0.276,0.668,0.797,1.065,0.874
	c1.082,0.217,2.201,0.26,3.303,0.372c-0.022-1.095,0.114-2.229-0.116-3.278c-0.279-1.26-0.863-2.45-1.533-4.254
	c2.993,1.021,3.611,2.966,4.487,4.87c0.944,2.058,0.979,3.833-0.816,5.601c0.132,0.164,0.269,0.329,0.397,0.49
	c1.06-0.079,2.905,0.103,3.037-0.29c0.562-1.696,2.707-3.186,1.048-5.352c-0.799-1.043-1.488-2.187-2.099-3.355
	c-0.182-0.357,0.062-0.947,0.106-1.434c0.496,0.204,1.245,0.27,1.437,0.633c1.372,2.611,2.698,5.246,3.891,7.94
	c0.67,1.521,3.507,2.438,5.531,1.478c1.813-0.861,0.958-2.502,0.409-3.406c-0.857-1.393-2.307-2.391-3.442-3.615
	c-0.465-0.498-0.779-1.143-1.157-1.725c0.749-0.108,1.762-0.592,2.213-0.27c2.795,1.99,6.126,3.484,7.15,7.317
	c0.133,0.494,1.082,1.188,1.486,1.09c0.727-0.189,1.639-0.763,1.931-1.429c0.906-2.021,0-3.754-1.567-4.923
	c-1.4-1.041-3.062-1.719-4.626-2.515c-1.155-0.593-2.678-0.825-3.439-1.731c-1.931-2.282-4.711-2.484-7.132-3.556
	c-4.647-2.056-9.148-4.535-13.936-6.193c-6.778-2.355-13.613-5.023-21.091-3.58c-1.338,0.258-2.688,0.425-4.03,0.633
	c-0.032,0.345-0.052,0.69-0.084,1.033C54.393,129.516,55.667,134.42,58.398,137.938z M73.325,152.158
	c-5.054-3.127-10.369-5.864-15.22-9.277c-4.53-3.18-8.583-7.05-12.88-10.579c-0.413-0.343-1.097-0.678-1.567-0.569
	c-1.889,0.418-3.246-0.707-3.752-2.031c-1.225-3.198-4.164-4.523-6.371-6.587c-3.152-2.947-6.578-5.605-9.968-8.285
	c-1.875-1.484-3.999-2.644-5.863-4.134c-3.428-2.743-6.831-5.536-10.076-8.495c-1.157-1.056-1.823-2.654-2.716-4.005
	c-1.938,1.12-2.117,1.549-2.017,4.294c2.872,2.336,5.508,4.553,8.217,6.673c7.041,5.501,14.077,11.013,21.179,16.428
	c7.75,5.913,15.633,11.642,23.348,17.596c6.505,5.027,13.716,8.806,20.904,12.659c0.194,0.104,0.429,0.12,0.647,0.178
	c0.139-0.18,0.279-0.357,0.42-0.539C76.185,154.365,74.854,153.1,73.325,152.158z M105.088,154.459
	c-0.906,0.641-2.328,1.549-3.063,1.237c-2.974-1.258-5.868-0.519-8.82-0.254c-1.337,0.117-2.702-0.053-4.294-0.098
	c0.349,0.331,0.583,0.678,0.91,0.837c5.842,2.857,12.022,4.49,18.534,4.515c2.792,0.009,5.589-0.526,8.396-0.695
	c1.567-0.096,1.863-1.119,1.61-2.252c-0.335-1.506-0.784-3.067-1.572-4.359c-0.841-1.385-1.851-2.561-3.87-0.852
	c-1.641,1.393-3.788,1.266-5.425-0.77C106.546,152.862,105.947,153.851,105.088,154.459z M86.325,160.317
	c4.169,1.76,8.283,3.711,12.584,5.072c2.544,0.804,5.394,0.659,8.106,0.884c2.071,0.165,4.217,0.535,5.793-1.359
	c-3.808-0.27-7.721-0.18-11.462-0.915c-3.896-0.767-7.697-2.174-11.427-3.596c-3.47-1.319-6.785-3.042-10.167-4.581
	c-0.167,0.441-0.331,0.89-0.494,1.335C81.614,158.215,83.943,159.314,86.325,160.317z M112.551,146.457
	c0.151-0.314-0.328-1.221-0.741-1.49c-1.392-0.908-2.871-1.689-4.361-2.429c-0.323-0.163-1.164-0.019-1.202,0.131
	c-0.137,0.541-0.235,1.257,0.006,1.706c0.949,1.797,2.037,3.52,3.254,5.573C111.334,149.776,111.824,147.943,112.551,146.457z
	 M10.661,93.825c-0.902,0.779-1.925,1.255-2.262,2.026c-0.651,1.494,1.062,3.876,4.357,6.104
	C12.033,99.14,11.426,96.797,10.661,93.825z M103.149,136.584c-0.743,2.421-0.129,3.409,2.837,3.962
	C104.864,138.979,104.067,137.87,103.149,136.584z"/>
<path d="M23.284,30.753c3.675-2.266,10.491-1.358,13.211,1.81c0.332,0.389,0.142,1.915-0.261,2.166
	c-2.941,1.854-5.899,3.775-9.074,5.136c-1.662,0.712-3.921,0.621-5.256-1.216c-1.296-1.781-1.942-3.756-0.578-5.934
	C21.971,32.052,22.523,31.217,23.284,30.753z M25.292,33.119c-0.673,0.12-1.128,1.56-1.686,2.392
	c0.752,0.351,1.48,0.937,2.264,1.013c2.41,0.239,4.141-1.045,5.647-2.681c-0.042-0.307-0.088-0.616-0.134-0.923
	C29.35,32.948,27.276,32.774,25.292,33.119z"/>
<path d="M77.573,23.636c1.902-2.657,7.36-3.841,9.12-1.987c1.171,1.233,1.669,5.01,0.89,6.708c-0.91,1.963-3.315,3.058-5.634,3.018
	c-2.033-0.034-4.074,0.391-6.113,0.586c-0.472,0.044-1.268,0.148-1.37-0.057c-0.279-0.545-0.532-1.371-0.308-1.869
	c0.777-1.781,1.766-3.473,2.672-5.2C77.079,24.433,77.297,24.017,77.573,23.636z M83.198,27.469
	c0.522-0.106,1.335-1.245,1.209-1.658c-0.209-0.696-0.988-1.558-1.658-1.688c-1.616-0.314-3.85,1.612-4.507,3.754
	C79.953,27.762,81.606,27.79,83.198,27.469z"/>
<path d="M50.873,14.109c-0.104-0.023-0.05-0.583-0.122-0.883c-0.393-1.613-0.782-3.233-1.219-4.841
	c-0.405-1.49-1.121-2.942-1.26-4.458c-0.18-1.917,0.959-3.422,2.78-3.833c1.576-0.349,3.14,0.253,3.758,1.994
	c1.959,5.537,0.508,10.655-2.23,15.593C51.956,16.421,52.883,14.604,50.873,14.109z M52.742,4.06
	c-0.086-0.351-0.79-0.546-1.215-0.813c-0.195,0.521-0.675,1.149-0.533,1.545c0.497,1.362,1.206,2.645,1.833,3.959
	c0.22-0.067,0.439-0.134,0.661-0.203C53.254,7.046,53.091,5.533,52.742,4.06z"/>
<path d="M34.398,71.983c-0.833,4.375-2.292,8.764,0.784,13.005c0.399,0.552,0.479,1.388,0.946,1.841
	c0.458,0.443,1.221,0.558,1.851,0.819c0.142-0.713,0.633-1.623,0.37-2.101c-2.031-3.683-3.026-7.529-2.387-11.78
	c0.097-0.613-0.382-1.318-0.601-1.98C35.039,71.855,34.72,71.919,34.398,71.983z"/>
<path d="M88.064,24.995c-0.077,1.045-0.15,2.09-0.249,3.417c0.404-0.127,1.286-0.311,1.278-0.409
	c-0.097-1.091-0.331-2.172-0.529-3.255C88.399,24.832,88.232,24.912,88.064,24.995z"/>
</svg>
