<?xml version="1.0" encoding="utf-8"?>
<!-- Generator: Adobe Illustrator 16.0.0, SVG Export Plug-In . SVG Version: 6.00 Build 0)  -->
<!DOCTYPE svg PUBLIC "-//W3C//DTD SVG 1.1//EN" "http://www.w3.org/Graphics/SVG/1.1/DTD/svg11.dtd">
<svg version="1.1" id="Layer_1" xmlns="http://www.w3.org/2000/svg" xmlns:xlink="http://www.w3.org/1999/xlink" x="0px" y="0px"
	 width="211.055px" height="90.822px" viewBox="0 0 211.055 90.822" enable-background="new 0 0 211.055 90.822"
	 xml:space="preserve">
<g>
	<path d="M102.996,47.123l-3.265,0.002v0.002c0,0.094,0,16.475,0,17.279c0,0.02,0,0.031,0,0.031c0,0.035,3.265,0.035,3.265,0.035
		c4.796,0,7.984-2.912,7.984-8.053v-1.242C110.98,50.08,107.792,47.123,102.996,47.123z"/>
	<path d="M148.402,47.982c-4.383,0-7.322,3.555-7.322,7.732v0.086c0,4.176,3.02,7.812,7.405,7.812c4.429,0,7.364-3.557,7.364-7.73
		v-0.082C155.85,51.625,152.826,47.982,148.402,47.982z"/>
	<rect x="194.775" y="53.646" width="16.279" height="4.281"/>
	<polygon points="191.221,47.123 184.826,47.123 184.826,54.586 175.472,54.586 175.472,56.92 184.826,56.92 184.826,64.387 
		191.221,64.387 191.221,59.869 193.628,59.869 193.628,51.641 191.221,51.641 	"/>
	<polygon points="19.945,64.387 26.34,64.387 26.34,56.92 35.691,56.92 35.691,54.586 26.34,54.586 26.34,47.123 19.945,47.123 
		19.945,51.641 17.537,51.641 17.537,59.869 19.945,59.869 	"/>
	<polygon points="175.521,68.479 184.886,68.479 184.886,77.697 26.354,77.697 26.354,68.479 35.691,68.479 35.691,66.146 
		19.945,66.146 19.945,90.455 100.621,90.455 100.669,90.455 100.756,90.377 102.886,83.156 191.244,83.156 191.244,66.146 
		175.521,66.146 	"/>
	<path d="M182.594,52.439v-4.912l-9.346-0.002v-6.633h9.346v-4.91L28.361,35.979v4.914h9.352v6.633h-9.352v4.914h9.352v6.631h-9.352
		v4.916h9.352v6.627h-9.337v4.918h154.231v-4.916l-9.359-0.002v-6.627h9.346v-4.912l-9.346-0.004v-6.631H182.594z M55.127,70.26
		h-8.065V41.311h8.065V70.26z M86.92,70.26h-7.033L67.524,54.375V70.26H59.58V41.311h7.479h0.007l11.911,15.299V41.311h7.943V70.26z
		 M119.082,55.701c0,8.354-6.078,14.559-16.502,14.559h-2.977H91.58V41.311h8.023h3.142c10.341,0,16.337,5.951,16.337,14.309V55.701
		z M129.843,70.26h-8.067V41.311h8.067V70.26z M163.911,55.785c0,8.309-6.7,15.053-15.637,15.053
		c-8.935,0-15.553-6.662-15.553-14.971v-0.082c0-8.314,6.706-15.057,15.637-15.057c8.935,0,15.553,6.662,15.553,14.973V55.785z
		 M168.895,43.535c0,1.193-0.969,2.197-2.203,2.197c-1.23,0-2.188-0.992-2.188-2.184v-0.014c0-1.199,0.967-2.199,2.203-2.199
		c1.229,0,2.188,0.99,2.188,2.186V43.535z"/>
	<path d="M166.854,41.561c-1.119-0.084-2.035,0.744-2.117,1.826V43.4c-0.082,1.08,0.693,2.021,1.808,2.105
		c1.12,0.084,2.035-0.74,2.117-1.822l0.001-0.014C168.744,42.588,167.965,41.645,166.854,41.561z M167.287,44.619l-0.557-0.791
		h-0.016h-0.463v0.791h-0.44v-2.297h1.026c0.303,0,0.54,0.088,0.699,0.244c0.122,0.119,0.185,0.279,0.185,0.484v0.006
		c0,0.371-0.219,0.604-0.528,0.693l0.615,0.869H167.287z"/>
	<path d="M167.274,43.072c0-0.23-0.168-0.357-0.456-0.357h-0.566v0.725h0.566c0.288,0,0.456-0.139,0.456-0.355V43.072z"/>
	<path d="M35.691,43.055H26.34v-9.213l134.545-0.037l2.174-5.266h4.346l-2.128,5.266l19.596,0.037v9.213h-9.352v2.334h15.724V0
		h-12.271l-8.692,21.434h-4.449L174.524,0H19.945v45.389h15.746V43.055z M130.811,4.877h7.023l0.041,0.039l4.671,4.18V4.877h12.044
		v23.711h-6.884l-4.889-4.098v4.098h-12.007V4.877z M119.887,1.307h3.923l-2.388,3.461h-1.543L119.887,1.307z M117.41,4.979
		c6.576,0,11.924,5.348,11.924,11.924s-5.348,11.926-11.924,11.926s-11.925-5.35-11.925-11.926S110.834,4.979,117.41,4.979z
		 M91.419,4.979h12.562v23.609H91.419V4.979z M65.037,4.877h7.023l4.718,4.219V4.877h12.039v23.711h-6.883l-4.892-4.098v4.098
		H65.037V4.877z M38.596,4.979h7.879l4.082,4.078l4.078-4.078h7.811v11.924c0,6.576-5.349,11.926-11.924,11.926
		c-6.576,0-11.926-5.35-11.926-11.926V4.979z"/>
	<path d="M140.475,88.572c-0.256-0.191-0.652-0.326-1.19-0.396c-0.19-0.023-0.58-0.057-1.169-0.096
		c-0.402-0.025-0.693-0.068-0.875-0.131c-0.246-0.084-0.371-0.223-0.371-0.412c0-0.184,0.119-0.322,0.35-0.428
		c0.235-0.104,0.57-0.154,1.006-0.154c0.66,0,1.308,0.164,1.942,0.486l0.433-0.479c-0.623-0.424-1.396-0.633-2.322-0.633
		c-0.683,0-1.215,0.115-1.594,0.35c-0.375,0.232-0.566,0.549-0.566,0.951c0,0.391,0.168,0.668,0.499,0.832
		c0.286,0.145,0.778,0.236,1.485,0.285c0.797,0.049,1.286,0.104,1.467,0.148c0.348,0.092,0.521,0.271,0.521,0.547
		c0,0.229-0.13,0.414-0.398,0.549c-0.276,0.139-0.663,0.207-1.163,0.207c-0.775,0-1.495-0.207-2.165-0.615l-0.392,0.514
		c0.609,0.484,1.457,0.725,2.552,0.725c0.753,0,1.329-0.127,1.729-0.375c0.408-0.248,0.607-0.6,0.607-1.055
		C140.859,89.037,140.73,88.764,140.475,88.572z"/>
	<rect x="146.203" y="88.176" width="2.006" height="0.637"/>
	<polygon points="171.248,86.205 168.822,90.791 169.652,90.791 171.732,86.857 172.9,89.08 171.966,89.08 171.604,89.766 
		173.27,89.766 173.8,90.791 174.631,90.791 172.206,86.205 	"/>
	<polygon points="128.959,88.812 128.959,88.176 128.959,87.072 132.57,87.072 132.57,86.436 128.247,86.436 128.247,90.717 
		132.734,90.717 132.734,90.082 128.959,90.082 	"/>
	<polygon points="156.881,89.951 153.611,86.436 152.729,86.436 152.729,90.717 153.439,90.717 153.439,87.207 156.709,90.717 
		157.592,90.717 157.592,86.436 156.881,86.436 	"/>
	<path d="M124.188,88.662c0.21-0.223,0.314-0.516,0.314-0.877c0-0.418-0.127-0.742-0.384-0.988c-0.254-0.24-0.609-0.361-1.06-0.361
		h-3.379v4.281h0.711v-1.631v-0.641v-1.373h2.495c0.594,0,0.888,0.238,0.888,0.713c0,0.443-0.271,0.66-0.82,0.66h-1.647v0.641h1.247
		l1.16,1.631h0.823l-1.146-1.666C123.729,88.994,123.996,88.863,124.188,88.662z"/>
	<rect x="129.883" y="88.176" width="2.008" height="0.637"/>
	<path d="M114.832,86.436h-3.394v4.281h0.71v-1.631v-0.641v-1.373h2.514c0.58,0,0.871,0.238,0.871,0.713
		c0,0.443-0.278,0.66-0.826,0.66h-1.639v0.641h1.63c0.507,0,0.896-0.113,1.163-0.338c0.263-0.225,0.398-0.549,0.398-0.975
		c0-0.408-0.127-0.73-0.387-0.977C115.617,86.557,115.273,86.436,114.832,86.436z"/>
	<polygon points="145.279,88.812 145.279,88.176 145.279,87.072 148.889,87.072 148.889,86.436 144.567,86.436 144.567,90.717 
		149.052,90.717 149.052,90.082 145.279,90.082 	"/>
	<polygon points="161.032,87.072 163.078,87.072 163.078,90.717 163.787,90.717 163.787,87.072 165.837,87.072 165.837,86.436 
		161.032,86.436 	"/>
	<rect y="53.658" width="16.279" height="4.281"/>
</g>
</svg>
