<?xml version="1.0" encoding="utf-8"?>
<!-- Generator: Adobe Illustrator 16.0.0, SVG Export Plug-In . SVG Version: 6.00 Build 0)  -->
<!DOCTYPE svg PUBLIC "-//W3C//DTD SVG 1.1//EN" "http://www.w3.org/Graphics/SVG/1.1/DTD/svg11.dtd">
<svg version="1.1" id="Layer_1" xmlns="http://www.w3.org/2000/svg" xmlns:xlink="http://www.w3.org/1999/xlink" x="0px" y="0px"
	 width="15.434px" height="420.151px" viewBox="0 0 15.434 420.151" enable-background="new 0 0 15.434 420.151"
	 xml:space="preserve">
<g>
	<line x1="7.717" y1="0" x2="7.717" y2="420.151"/>
	<g>
		<g>
			<g>
				<g>
					<path fill="#1D1D1D" d="M12.586,419.66c-0.072,0.621,0.765,0.398,0.915,0.491C13.315,419.113,12.368,419.687,12.586,419.66z"/>
					<polygon fill="#1D1D1D" points="10.684,409.421 11.026,409.603 10.188,408.093 					"/>
					<path fill="#1D1D1D" d="M10.699,399.846c-1.428,0.905,0.23,3.47-0.277,5.175l-0.324,0.282l1.147,0.769
						C11.063,403.998,10.301,401.306,10.699,399.846z"/>
					<path fill="#1D1D1D" d="M13.788,394.74c-0.557,0.314-0.479-1.104-0.176,1.19c0.062-0.115,0.097-0.149,0.142-0.216
						C13.745,395.508,13.747,395.224,13.788,394.74z"/>
					<path fill="#1D1D1D" d="M13.754,395.715C13.794,396.723,14.222,395.055,13.754,395.715L13.754,395.715z"/>
					<path fill="#1D1D1D" d="M13.436,391.058l0.496,1.328c0.329-0.277,0.402-1.46,0.641-1.021
						C14.301,390.003,13.975,390.283,13.436,391.058z"/>
					<path fill="#1D1D1D" d="M12.394,389.798l0.21,0.688C12.741,390.366,12.789,390.184,12.394,389.798z"/>
					<path fill="#1D1D1D" d="M13.046,391.946l-0.442-1.46c-0.23,0.192-0.692,0.213,0.159,0.671
						C12.341,391.037,12.747,391.326,13.046,391.946z"/>
					<path fill="#1D1D1D" d="M12.829,392.772c-0.311,0.745-0.506,1.708-1,0.375C12.026,395.688,13.028,395.313,12.829,392.772z"/>
					<path fill="#1D1D1D" d="M9.223,399.356l-0.417,0.996l0.478,0.861C9.046,400.784,9.67,399.295,9.223,399.356z"/>
					<path fill="#1D1D1D" d="M14.175,382.783c-0.303-0.083-0.81,0.446-1.197,0.546l0.348,0.98
						C13.533,383.806,13.726,382.85,14.175,382.783z"/>
					<path fill="#1D1D1D" d="M12.978,383.329l-0.521-1.468C12.394,383.172,12.642,383.412,12.978,383.329z"/>
					<polygon fill="#1D1D1D" points="10.81,389.562 11.904,391.973 10.794,389.097 					"/>
					<polygon fill="#1D1D1D" points="14.213,377.177 14.915,378.009 13.854,376.526 					"/>
					<path fill="#1D1D1D" d="M14.09,373.458c0.583,0.615,0.985-0.845,1.344-0.193c-0.104-1.011-0.604-1.873-1.053-2.649
						C14.63,371.44,14.566,372.32,14.09,373.458z"/>
					<path fill="#1D1D1D" d="M13.726,369.312c0.139,0.411,0.39,0.839,0.655,1.304C14.245,370.177,14.052,369.745,13.726,369.312z"/>
					<path fill="#1D1D1D" d="M12.605,379.36c0.184-0.113,0.664-0.332,0.868-1.155l-0.855,0.577
						C12.614,378.958,12.61,379.158,12.605,379.36z"/>
					<path fill="#1D1D1D" d="M12.591,378.803l0.027-0.021c0.024-0.627,0.041-1.062,0.048-1.247
						C12.656,377.694,12.634,378.076,12.591,378.803z"/>
					<path fill="#1D1D1D" d="M12.602,379.506c0.001-0.054,0.003-0.093,0.004-0.146C12.521,379.416,12.493,379.449,12.602,379.506z"
						/>
					<path fill="#1D1D1D" d="M11.582,385.713c-0.479-0.862-0.989-2.66-1.719-0.92C10.448,385.411,10.863,384.415,11.582,385.713z"/>
					<path fill="#1D1D1D" d="M11.533,380.223l-0.195,1.56c0.226-0.03,0.556-0.312,0.792,0.115L11.533,380.223z"/>
					<polygon fill="#1D1D1D" points="11.262,379.459 11.533,380.223 11.605,379.645 					"/>
					<path fill="#1D1D1D" d="M12.925,371.981c-0.371-0.673-0.403-1.41-0.463-2.242c-0.168,0.892-0.258,1.814-0.257,2.69
						C12.474,372.553,12.956,372.938,12.925,371.981z"/>
					<path fill="#1D1D1D" d="M12.688,375.297c-0.016-0.048-0.034-0.106-0.049-0.15C12.566,375.238,12.544,375.312,12.688,375.297z"
						/>
					<path fill="#1D1D1D" d="M12.468,361.546c-0.052,0.044-0.102,0.086-0.156,0.132c0.052,0.01,0.097,0.02,0.148,0.03
						L12.468,361.546z"/>
					<path fill="#1D1D1D" d="M12.046,372.579c-0.165,0.67,0.044,1.071,0.308,1.453c-0.086-0.502-0.142-1.033-0.148-1.603
						C12.083,372.374,12.003,372.363,12.046,372.579z"/>
					<path fill="#1D1D1D" d="M13.325,367.025c-0.179,0.349-0.33,0.745-0.47,1.161C13.126,367.845,13.549,367.148,13.325,367.025z"/>
					<path fill="#1D1D1D" d="M12.876,374.921c0.014,0.033,0.028,0.063,0.037,0.101C13.098,374.802,13.007,374.829,12.876,374.921z"
						/>
					<path fill="#1D1D1D" d="M12.876,374.921c-0.125-0.346-0.335-0.616-0.522-0.889c0.067,0.407,0.16,0.786,0.285,1.114
						C12.699,375.063,12.792,374.98,12.876,374.921z"/>
					<path fill="#1D1D1D" d="M6.981,359.063c0.792,0.118,1.524,1.881,0.675,3.402c0.594,1.498,3.199,0.519,4.655-0.788
						c-0.345-0.047-0.664-0.047-1.133-1.588c-0.432,0.54-1.012,3.419-1.728,2.119c-0.408-2.041,0.28-1.673,0.699-2.665
						c-0.987,0.844-1.437-2.597-2.888-2.152l0.511,1.79C7.549,359.215,7.188,358.566,6.981,359.063z"/>
					<path fill="#1D1D1D" d="M12.231,364.613l0.098,0.634c0.139-0.723,0.455-1.24,1.075-2.192c-0.387-1.056-0.681-1.274-0.944-1.347
						l-0.11,3.122L12.231,364.613z"/>
					<path fill="#1D1D1D" d="M12.333,368.094c-0.862-0.495-1.229-2.018-2.16-1.085c0.059,1.861,0.719,1.304,1.093,2.416
						c-0.214-3.003,0.479,0.862,0.969-1.308c0.146,0.591,0.191,1.121,0.228,1.622c0.104-0.541,0.234-1.062,0.394-1.553
						c-0.021,0.026-0.036,0.046-0.054,0.068l0.004,0.015l-0.014-0.003c-0.108,0.129-0.174,0.172-0.11,0.026
						c-0.012-0.011-0.016-0.047-0.018-0.063c-0.12-0.02-0.226-0.075-0.326-0.136c0.178-0.869,0.224-0.137,0.326,0.136
						c0.041,0.011,0.081,0.033,0.128,0.037l0.01-0.012l-0.473-3.008C12.21,365.884,12.234,366.681,12.333,368.094z"/>
					<path fill="#1D1D1D" d="M8.01,383.188c0.076-0.094,0.138-0.09,0.2-0.097C8.104,382.897,8.032,382.823,8.01,383.188z"/>
					<path fill="#1D1D1D" d="M8.531,381.951c0.119,0.219,0.464,0.4,0.376,1.111c-0.26,0.616-0.414-0.003-0.697,0.029
						c0.229,0.429,0.618,1.5,1.038,0.156l-0.118-0.213c0.296-1.211,1.371-2.767,1.49-2.556
						C9.845,380.833,9.292,381.146,8.531,381.951z"/>
					<path fill="#1D1D1D" d="M10.212,374.936l-0.423-2.504l-0.746,1.275l0.448-0.064C9.315,375.066,9.867,374.759,10.212,374.936z"
						/>
					<polygon fill="#1D1D1D" points="12.896,361.26 13.807,361.592 12.521,360.145 					"/>
					<polygon fill="#1D1D1D" points="12.788,358.005 13.579,358.125 13.102,357.266 					"/>
					<path fill="#1D1D1D" d="M2.967,174.326l-0.224-0.736C2.812,173.938,2.887,174.162,2.967,174.326z"/>
					<path fill="#1D1D1D" d="M2.913,179.655l0.39,0.13C3.088,179.538,2.93,179.437,2.913,179.655z"/>
					<path fill="#1D1D1D" d="M12.699,278.064c0.738-1.072,1.884-2.271,0.995-2.141l-0.867,0.329
						C12.981,277.002,12.885,277.576,12.699,278.064z"/>
					<path fill="#1D1D1D" d="M7.518,223.316c-0.085,0.102-0.175,0.208-0.264,0.313c0.298,0.26,0.578,0.504,0.83,0.724
						C7.913,224.041,7.72,223.688,7.518,223.316z"/>
					<path fill="#1D1D1D" d="M3.927,222.56l0.56-1.413C4.292,221.464,4.104,221.919,3.927,222.56z"/>
					<path fill="#1D1D1D" d="M2.046,145.226l-0.883-0.858C1.167,145.71,1.613,145.119,2.046,145.226z"/>
					<path fill="#1D1D1D" d="M12.468,324.668c0.339-0.926,0.481-1.662,0.523-2.309C12.493,323.474,11.745,324.373,12.468,324.668z"
						/>
					<path fill="#1D1D1D" d="M12.175,176.423c-0.157-0.45-0.334-0.643-0.527-0.629C11.797,176.257,11.962,176.519,12.175,176.423z"
						/>
					<path fill="#1D1D1D" d="M12.988,319.688c-0.087,0.163-0.131,0.323-0.204,0.489c0.146,0.676,0.262,1.356,0.207,2.183
						C13.363,321.536,13.591,320.594,12.988,319.688z"/>
					<path fill="#1D1D1D" d="M2.766,39.687c0.04-0.077,0.058-0.169,0.104-0.239C2.751,39.424,2.746,39.531,2.766,39.687z"/>
					<path fill="#1D1D1D" d="M11.521,8.939c0.054,0.303,0.055,0.797,0.067,1.263C11.647,9.975,11.642,9.595,11.521,8.939z"/>
					<path fill="#1D1D1D" d="M13.166,344.908C13.223,345.599,13.262,345.018,13.166,344.908L13.166,344.908z"/>
					<path fill="#1D1D1D" d="M9.734,348.265c-0.097-0.146-0.221-0.258-0.423-0.275C9.521,348.046,9.655,348.143,9.734,348.265z"/>
					<path fill="#1D1D1D" d="M7.589,312.812c0-0.021,0.001-0.037,0.002-0.06C7.421,312.957,7.453,312.922,7.589,312.812z"/>
					<path fill="#1D1D1D" d="M12.771,345.946c0.106-0.259,0.195-0.558,0.257-0.883C12.962,345.206,12.878,345.475,12.771,345.946z"
						/>
					<path fill="#1D1D1D" d="M13.182,345.807c-0.033,0.238-0.06,0.426-0.084,0.604C13.243,346.497,13.333,346.42,13.182,345.807z"/>
					<path fill="#1D1D1D" d="M13.12,343.946c0.013,0.395-0.027,0.763-0.092,1.117c0.061-0.136,0.109-0.192,0.138-0.155
						C13.156,344.705,13.143,344.42,13.12,343.946z"/>
					<path fill="#1D1D1D" d="M5.088,96.235c0.027-0.045,0.044-0.098,0.082-0.148C4.81,95.391,4.867,95.696,5.088,96.235z"/>
					<path fill="#1D1D1D" d="M3.688,260.097c0.009,0.032,0.031,0.05,0.042,0.079c0.01-0.032,0.022-0.072,0.031-0.103L3.688,260.097z
						"/>
					<path fill="#1D1D1D" d="M3.041,257.617c1.08,1.057,0.947,1.656,0.719,2.456l2.501-0.819L3.041,257.617z"/>
					<path fill="#1D1D1D" d="M2.717,161.568l-0.779,1.741c-1.283-2.102-0.84-3.622-1.938-1.987c2.717,0.246,0.279,6.768,2.992,7.01
						l-0.571,1.148c0.026-0.329-0.133-0.382-0.106-0.707c-1.301,2.232,1.964,1.658,1.577,4.535
						c-0.208,1.002-0.603,1.702-0.925,1.018l0.672,2.233c-0.053,0.65-0.523,0.491-0.473-0.156l0.217,3.407l-0.08-0.025
						c0.427,0.486,1.084,1.587,1.365,2.125c-0.389,0.866-0.287-0.434-0.626-0.212l0.658,1.886c-0.704,0.769-1.388-0.795-1.286-2.098
						c-2.712,1.761,0.685,1.565-0.899,5.367l-0.346-1.781c-1.54,1.148-0.982,2.538-1.942,4.552c0.501-0.478,2.42-4.032,3.098-1.984
						c-0.206,0.577-0.304,1.337,0.243,2.442c-0.965,0.01-0.729,1.088-0.673,2.438l-1.28-0.092c0.37,1.459,1.021,1.344,1.597,2.202
						c-0.126,1.626-1.117,1.963-1.952,2.346c-0.203,2.604,1.589-1.798,1.831,1.284c-0.49,2.166,0.033,3.686,0.798,6.277
						c-0.44,1.516-0.783-0.265-1.147,0.278l1.02,1.344c-0.024,0.329-0.338,0.223-0.496,0.169c0.396,1.132,1.278,0.093,1.627,1.873
						c1.408,0.48-2.061,3.654-0.46,5.857c-0.363,0.543-0.784-0.263-1.279-0.097c1.05,3.022,0.763,2.591,2.176,5.072l-0.84,2.114
						c0.96-1.553,2.097,0.432,3.031,2.17c0.464-0.551,0.87-1.021,1.063-1.338l0.687,2.774c-0.21,0.335-0.649,0.056-1.184-0.399
						c0.106,0.189,0.21,0.369,0.307,0.509c-0.473,0.992-1.211,0.478-1.926-0.233c0.252-0.338,0.522-0.673,0.789-0.999
						c-0.777-0.686-1.638-1.326-2.387-1.184c0.147,0.181,0.274,0.527,0.346,0.909c-0.211-0.179-0.399-0.294-0.527-0.211
						c-0.135,0.095,0.148,0.384,0.475,0.838l-1.426,0.631l0.566,0.152l-0.893,3.63c1.436,2.597,3.549,4.855,4.138,8.977
						c-1.046-1.022-1.708-0.22-2.947-0.275c1.312-1.124-0.558-3.191-0.291-5.328c-0.138,1.115-0.728,0.87-0.935,0.586l1.193,3.811
						c-1.013-0.087-0.76,0.809-1.179,1.804c2.003-0.752,1.334,2.84,1.948,4.39c-0.671,0.097-1.358-0.275-1.197-2.166
						c-1.508,2.086,2.353,2.695,1.071,4.744c-0.016-0.462,0.087-0.711-0.254-0.894c0.598,1.078,0.125,3.716-0.462,3.095l-0.014-0.46
						c-0.237,3.065-0.015,9.332,1.687,9.79c-0.219,0.03-2.051-0.402-2.395-0.588l5.725,5.471c-1.461-0.482-4.941,1.367-5.767-1.175
						c-0.208,0.73-0.451,1.633,0.064,3.172c0.208-0.498,2.113-1.241,2.246-0.561c-1.627,1.868-0.87,1.297-2.257,3.599
						c0.314-0.746,2.604,0.083,2.531,1.263c-0.343-0.185-2.261,0.099-2.5-0.333l2.249,2.937c-0.405-0.733-1.906-0.13-2.542,0.527
						c0.44-0.305-0.042,2.538,0.183,3.32l0.521-1.244c-0.34,3.314,3.162,3.274,3.044,6.562c-0.464-0.398-2.859-0.983-3.142,0.689
						c1.152,0.767,5.54,3.394,6.427,6.303l-0.659,0.559l0.751,2.232c-1.733-1.391-5.381-5.291-6.8-7.421
						c-0.521,1.24-0.776,0.345-0.717,2.202c-0.616,0.656-0.936-1.012-0.973-1.559l-0.398,4.325c1.345-0.192,1.349,3.308,2.469,3.143
						l-1.394-4.698c1.342-0.19,3.816,2.717,3.579,5.781c-0.535,0.779-2.394-0.583-2.842-0.52c0.463,0.398,0.885,2.909,0.556,3.19
						l-0.719-1.3c-0.505,1.706,1.782,2.784,0.499,4.834c-0.086,0.708-1.731,2.113-0.936,2.235c1.535-1.154,6.28-1.38,7.433-0.61
						c-0.104,0.248-1.467,3.716-2.225,4.523c-1.202,1.165-2.868-1.75-3.9-0.758c0.367,0.043,0.82,0.687,0.966,0.955
						c-0.313,0.743-1.138-0.308-0.972,1.307c1.364,0.27-0.115,3.285,1.152,0.764c0.39,1.579-0.28,1.679-0.221,3.533
						c0.881-0.59,2.999,1.666,3.387,3.248c-0.347-0.093-0.798,0.263-1.003,0.435c-0.124,3.237-0.743,4.976-0.755,7.995
						c-0.331,0.278-0.73,1.735-1.316,1.114c0.241,0.435,0.704,0.833,0.736,1.765c-1.179,1.802-0.183-2.076-1.599-0.702
						c0.792,0.117,1.093,2.408,1.588,3.734c1.223-0.408,0.234-3.064-0.26-4.393c1.688-0.006,3.455,2.306,4.235,5.462
						c0.42,2.508-1.09,1.087-0.851,1.522c-0.295,4.711,2.947,4.014,1.73,7.925c-1.076,1.553-2.141,0.07-2.916,0.414
						c-0.407-2.043,0.683-3.136,0.639-4.521l-0.509,1.705c-0.356-0.649-0.628-2.014-0.316-2.757
						c-0.967,1.301-0.186,7.959-1.078,11.594c0.361,0.646,0.733,1.761,1.166,1.232l-0.15-1.149c0.867-1.058,1.199,2.164,1.604,0.708
						c0.61,1.543,1.568,3.272,1.078,5.444l-1.226,0.408c0.358-0.047,0.731-1.42,0.356-2.03c0.544,0.905-1.659,3.33-0.054,4.322
						l0.85-1.523c0.616,1.55,1.919,3.464,1.531,5.389c1.211-0.876-0.139-0.443,1.278-1.812c-1.762,1.186,0.074-4.923-1.778-3.019
						c1.645-1.403,0.697-2.429,2.101-4.264c-0.405,0.057-0.774,0.65-0.575-0.966c-0.118-0.073-0.269-0.245-0.356-0.354
						c0.01-0.05,0.018-0.066,0.03-0.109c-0.018,0.032-0.03,0.058-0.048,0.09c-0.06-0.07-0.073-0.076-0.016,0.033
						c-0.177,0.385-0.391,0.696-0.615,0.823c-0.93-0.802-0.9-3.372-1.381-4.24c0.192-0.959,0.465,0.4,0.896-0.123l-0.718-1.298
						c0.898-0.128,1.491-2.547,2.018-0.288l0.04-2.033c0.504-1.196,0.704-2.843,0.326-3.858c0.194-0.959-0.994-2.422-0.291-1.586
						l-0.557-3.188l0.225-0.029c0.112-3.146-1.487-6.476,0.134-10.071c-0.227-1.06-0.504-2.153-0.249-3.926l0.776-0.345
						c-0.271-1.359,0.778-4.083-0.031-4.667c2.092-1.467,0.456-6.6,0.827-8.99l-1.015-0.09c0.058-1.646-0.23-3.225-0.637-5.268
						l-0.897,0.125c-0.735-1.762,0.638-4.528,0.545-7.314c0.344,0.189,0.254,0.896,0.047,1.396
						c2.026-3.328-1.474-7.022,0.002-10.042c-0.325-0.752-0.215-1.297,0.011-1.824c0.002,0.07,0.019,0.133,0.047,0.187
						c0.012-0.077,0.013-0.191,0.012-0.309c0.154-0.332,0.333-0.675,0.478-1.045c-0.22,0.314-0.398,0.616-0.481,0.879
						c-0.019-0.58-0.129-1.46-0.354-2.323l0.964-0.367c-0.014-0.069-0.012-0.126-0.028-0.199c0.356-0.847-0.456-0.681-1.181-0.229
						c-0.158-0.435-0.349-0.833-0.581-1.142c1.556-0.688-0.523-2.263,1.136-3.201c-0.81-0.581-0.609-4.336-2.311-4.796
						c0.221-0.029,0.327-0.283,0.342,0.183c0.193-0.962,0.387-1.923-0.093-2.785l1.224-0.408l-1.646-2.1
						c0.746-1.275,1.18-1.804,2.122-0.538c-1.448-3.058-0.546-2.481-1.982-5.082l0.792,0.127c-0.03-0.93-1.09-2.416-0.437-2.977
						c1.505-2.08,0.209-10.29,1.607-15.629c-2.332,1.036,1.043-2.481-0.764-2.693c0.552-0.311,0.863-1.055,1.344-0.189
						c-0.543-2.725,0.873-4.094-0.65-5.975c0.554-0.312,0.81,0.583,1.136,0.306c-0.118-0.219-0.479-0.865-0.149-1.149
						c0.327-0.277,0.462,0.399,0.703,0.83c-0.094-2.782-1.793-3.064-3.388-3.267c0.756-1.41,0.649-2.114-0.397-3.133
						c0.521-0.49,1.068-1.31,1.255,0.42c0.076-0.974,0.765-5.943-0.514-6.042c0.324-0.306,0.095-1.36-0.053-1.616
						c0.076-2.183,0.191-2.375,0.07-4.519l-0.208,0.595c-1.543-0.847-0.345-1.782-0.53-3.51l0.159,0.049
						c1.111-3.962-0.534-1.711,0.735-5.62l-0.959,0.212c-2.063-0.364,1.217-3.463,0.428-5.732l-0.548,0.819
						c-0.705-1.239,2.806-3.463,3.064-4.708c0.179-0.271,0.287,0.429,0.421,0.807c1.216-3.258-1.258-0.422-1.55-2.85
						c0.678-0.447,1.724,0.577,1.851-1.057c0.549-0.814-2.202-4.739-0.901-6.969c-0.522,0.491-1.044,0.979-1.436-0.149
						c-0.188-1.728,1.974-4.672,0.328-6.233c0.142-0.219,0.278-0.303,0.408-0.312c-0.425-1.321-0.705-4.294-1.599-5.089
						c3.314-1.221-1.611-8.214,1.444-8.185l-0.164-4.064l0.312,0.106c0.203-2.598-0.53-3.516-1.264-4.429
						c0.208-0.601,0.494-0.162,0.653-0.112c0.616-3.796,0.486-4.173-1.036-7.355l0.992-0.331c-0.576-0.862,1.554-5.487,0.397-9.21
						c0.112,0.037,0.305,0.114,0.444,0.409c-1.163-4.188,2.75-10.027-0.859-11.562l-0.89-2.764
						c-0.281,3.576-1.566-0.532-2.167,0.938c-0.212-1.406,1.089-3.635,1.274-1.907l-0.181,0.271
						c1.883,0.635,0.667-4.444,1.949-4.348c-0.094-7.036,0.948-13.894,1.028-20.485l-1.463,0.759l0.084-2.299
						c0.342-0.604,1.145-0.81,1.084,0.83c0.829-0.862-0.694-2.75-1.013-2.797c0.593-3.211,1.706,1.254,1.741,0.27l-0.108-1.337
						l-0.172,0.302c-0.598-1.084-1.23-1.181-1.159-3.152c0.293-1.247,0.902-0.64,0.959-1.131c0.104,0.003,0.152-0.163,0.042-0.753
						l0.124-2.897l-1.154,1.158c-0.568-1.284,0.061-2.723-1.248-1.387c2.018-1.962,0.725-10.805,1.351-12.009
						c-0.842-1.798-0.826-3.573-0.725-5.772c-0.241,0.547-1.54,0.874-1.38-1.022c2.679,0.694,1.163-3.473,3.09-5.005
						c-1.278,1.37-0.315-5.391-2.13-3.242c0.217-1.583,1.002-0.096,1.633-1.297c-1.038-3.766,0.674-8.3,0.324-12.955
						c-0.351-0.073-0.89,0.707-1.413-0.292l1.759-2.458c-0.173-0.919-2.031-0.846-0.81-2.526c-0.297,0.237-0.741,0.591-0.854-0.025
						c1.715-9.12-1.404-18.635,1.817-27.897c-0.682,1.254-0.751,0.418-0.774-0.54c-0.164,0.623-0.87-0.014-1.346,0.108l1.323-3.877
						c-1.323-0.707-0.089-4.157-1.354-4.562l0.228,1.228C8.947,1.466,7.121,5.384,5.205,5.145c1.698,1.829-2.514,4.821-0.084,7.821
						c-0.391,0.662-0.618-0.565-1.062-0.21c0.821,0.76,0.993,1.679,0.624,3.38L4.48,15.943c0.202,4.781-0.608,6.831-1.148,12.202
						l0.948-0.398c-0.127,1.154-0.424,1.397-0.661,1.938c1.436,1.324,0.081-3.242,1.665-2.035c-1.928,1.531-0.029,8.139-2.22,9.173
						c-0.011,1.776,1.097-0.52,1.084,1.254l-0.593,0.471l0.764,0.448c-0.126,1.165-0.867,1.751-1.369,1.795
						c0.06-0.282-0.14-0.803-0.184-1.105c-0.698,1.51,0.238,4.256,0.011,4.774l0.365-1.706c0.555,4.845-0.224,10.762,0.982,15.443
						l0.448-0.355c0.826,3.575-0.491,2.863-0.109,6.788l-0.106-0.143c0.445,0.786,0.67,1.834,0.619,2.909
						c-0.523-0.991-1.018,1.865-1.597,0.565c0.888,3.876,0.697,1.917,2.358,4.478l-0.741,0.59c0.67,0.873,1.024,0.946,1.216,2.906
						c-0.636-1.608-1.129,1.251-1.971-0.55c-1.622,4.113,1.638,6.108-0.734,7.995c2.053,1.889,1.14-3.56,1.579-2.501
						c0.672-0.886,1.535,1.559,1.328,2.85c-0.046,1.314-2.625,2.234-2.586,5.54c0.009-0.329-0.145-0.352-0.137-0.679
						c-0.523,1.237,0.709,2.423-0.141,3.941c1.24,0.85-0.072,1.97,1.511,2.215l-0.366-3.032c0.414,1.719,2.266,3.331,1.368,6.163
						c-0.319-0.221-0.738-1.063-0.973-1.642c-0.467,0.828,0.309,1.595-0.17,2.453c-1.585-0.245-0.345-3.685-1.553-5.527
						c-0.669,0.889,1.148,3.484-0.568,2.559c2.182,1.33-0.275,3.257,1.391,5.495l-0.949-0.147c0.148,0.354,0.597,1.088,0.573,1.74
						l-1.23-1.181c1.049,1.812-0.917,3.494-0.347,5.232c-0.029-3.64,1.144-0.817,1.836-2.356c1.27,4.489-2.482,2.582-2.027,7.607
						c-0.134-0.68,0.569-2.554,1.01-1.49c-0.196,0.957-0.56,2.22-1.058,2.808c0.197,3.33,0.976-0.511,1.559,0.906
						c-1.156,1.134,0.471,1.635,0.841,3.095l-0.965,0.01c-0.619,3.794,2.011,1.006,1.263,4.422l-1.338-1.444l0.346,1.781
						l-1.098-0.368c0.814,1.938,0.604,2.542,0.296,4.439c0.68-0.441,1.751,0.248,1.782,1.929c-0.574,1.146-0.918-0.642-0.78,1.74
						c-0.604-0.538-1.362-1.126-0.473-2.164c-0.314-0.106-0.606-0.53-0.916-0.64c-0.66,1.234-0.15,3.102-0.142,3.965
						c0.036-0.332,0.088-0.729,0.226-0.933l1.336,3.453c-0.362,0.544-0.653,0.113-0.938-0.314c0.104,0.699,0.548,1.183,0.63,2.212
						c-0.784-0.266-1.594-0.203-1.962-1.658l0.869,3.29c-0.341,0.22-0.936,1.689-1.226,1.262c-0.461,1.824,1.521,4.475,0.914,6.894
						c0.152,0.125,0.297,0.377,0.409,0.892c-0.177,2.273-1.139,4.287-0.064,6.981l-1.406,1.529c0.319,2.11,1.771-2.069,2.302,1.443
						c0.449,2.488-1.199,0.929-1.59,1.801c0.708,1.237,2.15,3.388,1.006,5.672C2.613,162.868,2.821,162.274,2.717,161.568z
						 M3.341,187.59c-0.203-0.504-0.827-1.509-0.259-1.878C4.188,186.286,3.659,186.73,3.341,187.59z M5.664,227.147
						c-0.32-0.375-0.162-0.955,0.203-1.609C5.947,226.013,5.911,226.551,5.664,227.147z M12.381,337.341
						c-0.016-0.021-0.027-0.036-0.047-0.054C12.71,336.163,12.562,336.562,12.381,337.341z M11.962,339.677
						c0.136,0.234,0.269,0.219,0.403,0.119c-0.244-0.163-0.262-0.688-0.192-1.284C11.921,338.678,11.745,338.979,11.962,339.677z
						 M11.582,88.861l-0.253,0.455C11.052,88.29,11.303,88.577,11.582,88.861z"/>
					<path fill="#1D1D1D" d="M4.343,222.662c0.163-0.143,0.343-0.183,0.524-0.216C4.705,222.248,4.518,222.244,4.343,222.662z"/>
					<path fill="#1D1D1D" d="M2.21,145.385c0.008-0.026,0.004-0.053,0.011-0.079c-0.058-0.043-0.118-0.067-0.175-0.08L2.21,145.385z
						"/>
					<path fill="#1D1D1D" d="M3.781,303.498c0.14-0.48,0.317-0.749,0.499-0.928C4.043,302.544,3.844,302.763,3.781,303.498z"/>
					<path fill="#1D1D1D" d="M13.602,352.054l-0.251-1.497c0.048,0.725-0.163,0.982-0.316,1.348
						C13.261,351.871,13.586,351.586,13.602,352.054z"/>
					<path fill="#1D1D1D" d="M7.63,365.039c0.119,0.218,0.013,0.463,0.133,0.679l0.448-0.06
						C8.183,364.727,7.821,364.076,7.63,365.039z"/>
					<path fill="#1D1D1D" d="M10.396,353.438c-0.812,0.118-0.536,1.057-0.386,2.104c-0.003-0.062-0.01-0.122,0-0.185
						C11.146,355.667,10.77,354.55,10.396,353.438z"/>
					<path fill="#1D1D1D" d="M10.037,355.786c0.038,0.323,0.061,0.653,0.021,0.969C10.514,356.878,10.152,356.362,10.037,355.786z"
						/>
					<path fill="#1D1D1D" d="M12.5,342.639c-0.208,0.497,1.038,0.312,0.708,0.594C14.24,343.787,11.957,339.919,12.5,342.639z"/>
					<polygon fill="#1D1D1D" points="7.722,354.287 8.724,353.911 7.916,353.324 					"/>
					<path fill="#1D1D1D" d="M8.457,346.013l-0.278,1.674c0.168-0.025,0.268,0.188,0.342,0.449
						C8.555,347.104,8.754,345.973,8.457,346.013z"/>
					<path fill="#1D1D1D" d="M8.521,348.136c-0.02,0.537,0.002,1.049,0.166,1.348C8.677,349.192,8.644,348.566,8.521,348.136z"/>
					<polygon fill="#1D1D1D" points="7.421,351.998 7.63,351.503 7.704,350.32 					"/>
					<path fill="#1D1D1D" d="M8.65,328.012l-0.287-1.827c-0.344-0.187-0.554,0.312-0.416,0.992
						C8.186,327.614,8.318,328.292,8.65,328.012z"/>
					<path fill="#1D1D1D" d="M5.907,333.538c0.208-0.494,0.431-0.527,0.76-0.806l-1.242-0.056L5.907,333.538z"/>
					<path fill="#1D1D1D" d="M5.616,328.209c-0.345-0.183-0.989-2.652-0.911-0.336C5.046,328.059,5.333,329.889,5.616,328.209z"/>
					<polygon fill="#1D1D1D" points="7.188,300.673 7.204,301.137 9.24,301.07 					"/>
					<path fill="#1D1D1D" d="M2.314,276.402c-0.488,2.165,1.257,0.514,0.647,2.471c0.481,0.509,0.498-1.6,0.914-1.078
						C3.367,276.488,3.655,275.802,2.314,276.402z"/>
					<path fill="#1D1D1D" d="M3.875,277.795c0.08,0.21,0.178,0.432,0.31,0.667C4.058,278.083,3.96,277.905,3.875,277.795z"/>
					<polygon fill="#1D1D1D" points="12.615,3.838 13.04,2.445 12.355,3.344 					"/>
					<path fill="#1D1D1D" d="M11.104,1.164l1.3-0.328L11.228,0C11.285,0.315,11.397,0.925,11.104,1.164z"/>
					<path fill="#1D1D1D" d="M0.725,191.458l0.312,0.106c0.338-0.216,0.363-0.542,0.416-1.195L0.725,191.458z"/>
					<polygon fill="#1D1D1D" points="1.696,172.572 1.67,172.897 2.844,172.29 					"/>
					<path fill="#1D1D1D" d="M0.199,156.721c-0.049,0.646,0.213,1.407,0.164,2.057C0.15,157.367,1.664,156.545,0.199,156.721z"/>
				</g>
			</g>
		</g>
	</g>
</g>
</svg>
