<?xml version="1.0" encoding="utf-8"?>
<!-- Generator: Adobe Illustrator 16.0.0, SVG Export Plug-In . SVG Version: 6.00 Build 0)  -->
<!DOCTYPE svg PUBLIC "-//W3C//DTD SVG 1.1//EN" "http://www.w3.org/Graphics/SVG/1.1/DTD/svg11.dtd">
<svg version="1.1" id="Layer_1" xmlns="http://www.w3.org/2000/svg" xmlns:xlink="http://www.w3.org/1999/xlink" x="0px" y="0px"
	 width="420.151px" height="15.433px" viewBox="0 0 420.151 15.433" enable-background="new 0 0 420.151 15.433"
	 xml:space="preserve">
<g>
	<line x1="420.151" y1="7.717" x2="0" y2="7.717"/>
	<g>
		<g>
			<g>
				<g>
					<path fill="#1D1D1D" d="M0.491,12.585C-0.129,12.513,0.093,13.351,0,13.501C1.038,13.316,0.465,12.369,0.491,12.585z"/>
					<polygon fill="#1D1D1D" points="10.73,10.683 10.549,11.026 12.059,10.187 					"/>
					<path fill="#1D1D1D" d="M20.306,10.699c-0.905-1.428-3.47,0.23-5.176-0.277l-0.281-0.324l-0.77,1.148
						C16.153,11.064,18.846,10.3,20.306,10.699z"/>
					<path fill="#1D1D1D" d="M25.412,13.788c-0.315-0.556,1.104-0.479-1.191-0.175c0.116,0.061,0.149,0.096,0.216,0.141
						C24.643,13.746,24.928,13.748,25.412,13.788z"/>
					<path fill="#1D1D1D" d="M24.437,13.753C23.428,13.794,25.097,14.221,24.437,13.753L24.437,13.753z"/>
					<path fill="#1D1D1D" d="M29.094,13.435l-1.328,0.496c0.277,0.329,1.459,0.402,1.021,0.641
						C30.148,14.3,29.868,13.974,29.094,13.435z"/>
					<path fill="#1D1D1D" d="M30.353,12.394l-0.688,0.209C29.785,12.742,29.967,12.789,30.353,12.394z"/>
					<path fill="#1D1D1D" d="M28.205,13.046l1.46-0.443c-0.192-0.23-0.212-0.692-0.67,0.16
						C29.114,12.341,28.825,12.748,28.205,13.046z"/>
					<path fill="#1D1D1D" d="M27.378,12.83c-0.745-0.311-1.708-0.506-0.375-1C24.463,12.026,24.837,13.029,27.378,12.83z"/>
					<path fill="#1D1D1D" d="M20.795,9.222l-0.996-0.417l-0.862,0.478C19.368,9.046,20.857,9.669,20.795,9.222z"/>
					<path fill="#1D1D1D" d="M37.368,14.175c0.083-0.303-0.446-0.811-0.546-1.198l-0.981,0.349
						C36.346,13.533,37.301,13.725,37.368,14.175z"/>
					<path fill="#1D1D1D" d="M36.822,12.977l1.468-0.521C36.979,12.394,36.739,12.642,36.822,12.977z"/>
					<polygon fill="#1D1D1D" points="30.59,10.809 28.178,11.904 31.055,10.794 					"/>
					<polygon fill="#1D1D1D" points="42.975,14.212 42.143,14.916 43.625,13.853 					"/>
					<path fill="#1D1D1D" d="M46.693,14.089c-0.615,0.583,0.844,0.986,0.193,1.344c1.01-0.104,1.873-0.604,2.649-1.053
						C48.711,14.63,47.832,14.566,46.693,14.089z"/>
					<path fill="#1D1D1D" d="M50.84,13.725c-0.412,0.14-0.839,0.39-1.304,0.655C49.975,14.246,50.406,14.052,50.84,13.725z"/>
					<path fill="#1D1D1D" d="M40.791,12.605c0.113,0.184,0.332,0.664,1.155,0.869l-0.577-0.855
						C41.193,12.615,40.994,12.61,40.791,12.605z"/>
					<path fill="#1D1D1D" d="M41.349,12.591l0.02,0.027c0.626,0.023,1.061,0.04,1.248,0.047
						C42.457,12.657,42.075,12.634,41.349,12.591z"/>
					<path fill="#1D1D1D" d="M40.646,12.601c0.053,0.002,0.093,0.003,0.146,0.004C40.735,12.521,40.702,12.494,40.646,12.601z"/>
					<path fill="#1D1D1D" d="M34.438,11.582c0.863-0.479,2.661-0.989,0.92-1.719C34.74,10.449,35.736,10.863,34.438,11.582z"/>
					<path fill="#1D1D1D" d="M39.929,11.533l-1.559-0.195c0.03,0.227,0.312,0.556-0.116,0.793L39.929,11.533z"/>
					<polygon fill="#1D1D1D" points="40.692,11.261 39.929,11.533 40.506,11.605 					"/>
					<path fill="#1D1D1D" d="M48.169,12.925c0.673-0.371,1.41-0.404,2.243-0.463c-0.892-0.168-1.814-0.259-2.69-0.258
						C47.599,12.474,47.214,12.956,48.169,12.925z"/>
					<path fill="#1D1D1D" d="M44.855,12.687c0.047-0.015,0.105-0.034,0.15-0.049C44.913,12.566,44.839,12.543,44.855,12.687z"/>
					<path fill="#1D1D1D" d="M58.605,12.468c-0.044-0.053-0.086-0.103-0.132-0.156c-0.01,0.051-0.02,0.097-0.03,0.148L58.605,12.468
						z"/>
					<path fill="#1D1D1D" d="M47.572,12.046c-0.67-0.166-1.071,0.043-1.453,0.307c0.501-0.086,1.032-0.142,1.603-0.148
						C47.778,12.083,47.788,12.003,47.572,12.046z"/>
					<path fill="#1D1D1D" d="M53.126,13.326c-0.35-0.18-0.745-0.33-1.162-0.471C52.306,13.126,53.003,13.548,53.126,13.326z"/>
					<path fill="#1D1D1D" d="M45.23,12.875c-0.033,0.015-0.064,0.028-0.1,0.038C45.35,13.097,45.323,13.007,45.23,12.875z"/>
					<path fill="#1D1D1D" d="M45.23,12.875c0.345-0.124,0.617-0.335,0.889-0.522c-0.408,0.068-0.787,0.16-1.115,0.285
						C45.088,12.699,45.171,12.792,45.23,12.875z"/>
					<path fill="#1D1D1D" d="M61.088,6.981c-0.119,0.792-1.881,1.524-3.403,0.675c-1.497,0.594-0.518,3.199,0.789,4.656
						c0.047-0.346,0.047-0.664,1.588-1.133c-0.54-0.432-3.419-1.012-2.119-1.729c2.041-0.407,1.672,0.281,2.665,0.699
						c-0.843-0.986,2.597-1.436,2.152-2.887l-1.79,0.511C60.936,7.549,61.585,7.188,61.088,6.981z"/>
					<path fill="#1D1D1D" d="M55.538,12.232l-0.634,0.098c0.723,0.139,1.24,0.455,2.193,1.074c1.055-0.387,1.273-0.68,1.346-0.943
						l-3.122-0.111L55.538,12.232z"/>
					<path fill="#1D1D1D" d="M52.057,12.333c0.495-0.863,2.018-1.23,1.085-2.16c-1.861,0.059-1.304,0.719-2.416,1.092
						c3.002-0.213-0.863,0.48,1.307,0.969c-0.59,0.146-1.121,0.191-1.622,0.229c0.541,0.104,1.062,0.234,1.553,0.393
						c-0.027-0.021-0.046-0.035-0.069-0.053l-0.014,0.003l0.003-0.013c-0.13-0.109-0.172-0.174-0.026-0.111
						c0.01-0.012,0.046-0.016,0.062-0.018c0.021-0.12,0.076-0.225,0.136-0.326c0.87,0.178,0.137,0.225-0.136,0.326
						c-0.01,0.041-0.033,0.082-0.036,0.129l0.011,0.01l3.008-0.473C54.267,12.21,53.471,12.234,52.057,12.333z"/>
					<path fill="#1D1D1D" d="M36.963,8.01c0.093,0.076,0.089,0.138,0.096,0.2C37.254,8.104,37.328,8.032,36.963,8.01z"/>
					<path fill="#1D1D1D" d="M38.2,8.531c-0.219,0.119-0.401,0.465-1.111,0.377c-0.617-0.26,0.003-0.414-0.03-0.698
						c-0.428,0.229-1.499,0.618-0.156,1.038l0.213-0.117c1.21,0.295,2.767,1.371,2.555,1.489C39.318,9.844,39.006,9.292,38.2,8.531z
						"/>
					<path fill="#1D1D1D" d="M45.215,10.211l2.505-0.423l-1.276-0.745l0.065,0.448C45.084,9.316,45.393,9.867,45.215,10.211z"/>
					<polygon fill="#1D1D1D" points="58.892,12.896 58.56,13.806 60.007,12.521 					"/>
					<polygon fill="#1D1D1D" points="62.147,12.788 62.026,13.58 62.886,13.101 					"/>
					<path fill="#1D1D1D" d="M245.825,2.967l0.736-0.224C246.212,2.812,245.989,2.887,245.825,2.967z"/>
					<path fill="#1D1D1D" d="M240.497,2.913l-0.131,0.39C240.613,3.088,240.714,2.93,240.497,2.913z"/>
					<path fill="#1D1D1D" d="M142.087,12.699c1.072,0.738,2.27,1.885,2.14,0.995l-0.329-0.867
						C143.149,12.982,142.575,12.884,142.087,12.699z"/>
					<path fill="#1D1D1D" d="M196.835,7.518c-0.102-0.085-0.208-0.175-0.313-0.264c-0.26,0.298-0.504,0.578-0.724,0.83
						C196.11,7.913,196.464,7.72,196.835,7.518z"/>
					<path fill="#1D1D1D" d="M197.591,3.927l1.414,0.56C198.687,4.292,198.232,4.104,197.591,3.927z"/>
					<path fill="#1D1D1D" d="M274.925,2.046l0.858-0.883C274.441,1.167,275.032,1.613,274.925,2.046z"/>
					<path fill="#1D1D1D" d="M95.483,12.468c0.925,0.338,1.662,0.48,2.309,0.523C96.677,12.494,95.778,11.746,95.483,12.468z"/>
					<path fill="#1D1D1D" d="M243.728,12.175c0.45-0.158,0.643-0.334,0.63-0.527C243.894,11.796,243.631,11.962,243.728,12.175z"/>
					<path fill="#1D1D1D" d="M100.464,12.988c-0.163-0.086-0.323-0.131-0.489-0.203c-0.676,0.145-1.356,0.262-2.183,0.207
						C98.615,13.363,99.558,13.591,100.464,12.988z"/>
					<path fill="#1D1D1D" d="M380.464,2.766c0.077,0.04,0.169,0.058,0.239,0.104C380.727,2.751,380.621,2.746,380.464,2.766z"/>
					<path fill="#1D1D1D" d="M411.211,11.521c-0.303,0.055-0.797,0.055-1.263,0.068C410.175,11.648,410.556,11.642,411.211,11.521z"
						/>
					<path fill="#1D1D1D" d="M75.244,13.166C74.553,13.222,75.134,13.261,75.244,13.166L75.244,13.166z"/>
					<path fill="#1D1D1D" d="M71.886,9.734c0.147-0.097,0.258-0.221,0.275-0.422C72.105,9.521,72.009,9.655,71.886,9.734z"/>
					<path fill="#1D1D1D" d="M107.34,7.589c0.021,0,0.037,0.001,0.06,0.002C107.194,7.421,107.229,7.453,107.34,7.589z"/>
					<path fill="#1D1D1D" d="M74.205,12.771c0.259,0.107,0.558,0.195,0.883,0.258C74.945,12.962,74.676,12.878,74.205,12.771z"/>
					<path fill="#1D1D1D" d="M74.344,13.181c-0.238-0.032-0.425-0.059-0.603-0.084C73.654,13.243,73.731,13.333,74.344,13.181z"/>
					<path fill="#1D1D1D" d="M76.205,13.121c-0.395,0.012-0.763-0.028-1.118-0.092c0.136,0.06,0.192,0.109,0.156,0.137
						C75.446,13.157,75.731,13.143,76.205,13.121z"/>
					<path fill="#1D1D1D" d="M323.917,5.088c0.045,0.027,0.098,0.044,0.147,0.082C324.76,4.81,324.455,4.867,323.917,5.088z"/>
					<path fill="#1D1D1D" d="M160.054,3.688c-0.032,0.009-0.05,0.031-0.079,0.042c0.033,0.01,0.073,0.022,0.103,0.031L160.054,3.688
						z"/>
					<path fill="#1D1D1D" d="M162.534,3.041c-1.056,1.08-1.656,0.947-2.456,0.719l0.82,2.501L162.534,3.041z"/>
					<path fill="#1D1D1D" d="M258.583,2.717l-1.742-0.779c2.103-1.283,3.623-0.84,1.988-1.938c-0.246,2.717-6.769,0.279-7.011,2.992
						l-1.147-0.571c0.329,0.026,0.382-0.133,0.706-0.106c-2.232-1.301-1.658,1.964-4.534,1.577
						c-1.002-0.208-1.702-0.603-1.019-0.925l-2.233,0.672c-0.65-0.053-0.491-0.523,0.156-0.473l-3.407,0.217l0.025-0.08
						c-0.486,0.427-1.588,1.084-2.125,1.365c-0.865-0.389,0.435-0.287,0.213-0.626l-1.887,0.658
						c-0.769-0.704,0.795-1.388,2.098-1.286c-1.761-2.712-1.564,0.685-5.366-0.899l1.78-0.346c-1.147-1.54-2.538-0.982-4.552-1.942
						c0.479,0.501,4.032,2.42,1.984,3.098c-0.577-0.206-1.337-0.304-2.441,0.243c-0.011-0.965-1.089-0.729-2.438-0.673l0.093-1.28
						c-1.459,0.37-1.344,1.021-2.202,1.597c-1.626-0.126-1.963-1.117-2.346-1.952c-2.604-0.203,1.798,1.589-1.284,1.831
						c-2.165-0.49-3.686,0.033-6.276,0.798c-1.516-0.44,0.265-0.783-0.278-1.147l-1.344,1.02c-0.329-0.024-0.223-0.338-0.169-0.496
						c-1.132,0.396-0.094,1.278-1.873,1.627c-0.48,1.408-3.654-2.061-5.857-0.46c-0.543-0.363,0.262-0.784,0.096-1.279
						c-3.022,1.05-2.591,0.763-5.072,2.176l-2.114-0.84c1.553,0.96-0.432,2.097-2.17,3.031c0.551,0.464,1.021,0.87,1.337,1.064
						l-2.774,0.686c-0.335-0.209-0.056-0.648,0.399-1.184c-0.189,0.106-0.369,0.21-0.508,0.307
						c-0.992-0.472-0.478-1.211,0.233-1.925c0.338,0.252,0.673,0.522,1,0.789c0.685-0.777,1.326-1.638,1.183-2.387
						c-0.18,0.147-0.527,0.274-0.909,0.346c0.179-0.211,0.294-0.399,0.211-0.527c-0.094-0.135-0.384,0.148-0.837,0.475l-0.631-1.426
						l-0.153,0.566l-3.629-0.893c-2.597,1.436-4.855,3.549-8.977,4.138c1.022-1.046,0.22-1.708,0.275-2.947
						c1.125,1.312,3.192-0.558,5.328-0.291c-1.114-0.138-0.87-0.728-0.586-0.935l-3.81,1.193c0.086-1.013-0.809-0.76-1.804-1.179
						c0.752,2.003-2.84,1.334-4.39,1.948c-0.096-0.671,0.275-1.358,2.167-1.197c-2.087-1.508-2.696,2.353-4.745,1.071
						c0.462-0.016,0.711,0.087,0.893-0.254c-1.078,0.598-3.715,0.125-3.095-0.462l0.46-0.014c-3.065-0.237-9.333-0.015-9.79,1.687
						c-0.03-0.219,0.402-2.051,0.587-2.395l-5.47,5.724c0.482-1.461-1.368-4.941,1.174-5.766c-0.73-0.208-1.633-0.451-3.172,0.064
						c0.498,0.208,1.241,2.113,0.561,2.246c-1.868-1.627-1.297-0.87-3.599-2.257c0.746,0.314-0.083,2.604-1.263,2.531
						c0.185-0.343-0.098-2.261,0.333-2.5L149.9,6.063c0.733-0.405,0.129-1.906-0.528-2.542c0.305,0.44-2.538-0.042-3.32,0.183
						l1.244,0.521c-3.315-0.34-3.274,3.162-6.562,3.044c0.398-0.464,0.983-2.859-0.689-3.142c-0.767,1.152-3.394,5.54-6.303,6.427
						l-0.558-0.658l-2.232,0.75c1.39-1.732,5.291-5.38,7.421-6.799c-1.24-0.521-0.345-0.776-2.203-0.717
						c-0.656-0.616,1.012-0.936,1.559-0.973l-4.325-0.398c0.192,1.345-3.308,1.349-3.143,2.469l4.698-1.394
						c0.19,1.342-2.716,3.816-5.781,3.579c-0.78-0.535,0.583-2.394,0.519-2.842c-0.397,0.463-2.908,0.885-3.19,0.556l1.3-0.719
						c-1.706-0.505-2.784,1.782-4.834,0.499c-0.708-0.086-2.113-1.731-2.235-0.936c1.154,1.535,1.38,6.28,0.61,7.433
						c-0.248-0.104-3.715-1.467-4.523-2.225c-1.166-1.202,1.75-2.868,0.757-3.9c-0.042,0.367-0.687,0.82-0.955,0.966
						c-0.743-0.313,0.308-1.138-1.307-0.972c-0.27,1.364-3.284-0.115-0.764,1.152c-1.579,0.39-1.678-0.28-3.533-0.221
						c0.59,0.881-1.666,2.999-3.248,3.387c0.093-0.347-0.262-0.798-0.435-1.003c-3.238-0.124-4.976-0.743-7.995-0.755
						c-0.278-0.331-1.735-0.73-1.114-1.316c-0.435,0.241-0.833,0.704-1.765,0.736c-1.802-1.179,2.076-0.183,0.703-1.599
						c-0.118,0.792-2.409,1.093-3.735,1.588c0.408,1.223,3.064,0.234,4.393-0.26c0.006,1.688-2.306,3.455-5.462,4.236
						c-2.508,0.419-1.087-1.091-1.522-0.852c-4.711-0.295-4.013,2.947-7.925,1.73c-1.552-1.076-0.07-2.141-0.414-2.916
						c2.043-0.407,3.136,0.683,4.521,0.639l-1.705-0.509c0.65-0.356,2.014-0.628,2.757-0.316c-1.301-0.967-7.958-0.186-11.593-1.078
						c-0.646,0.361-1.76,0.733-1.233,1.166l1.15-0.15c1.057,0.867-2.165,1.199-0.708,1.604c-1.543,0.61-3.272,1.567-5.444,1.077
						l-0.408-1.226c0.046,0.358,1.419,0.731,2.03,0.356c-0.905,0.543-3.33-1.66-4.322-0.055l1.523,0.85
						c-1.549,0.617-3.463,1.919-5.388,1.531c0.876,1.211,0.443-0.139,1.811,1.279c-1.185-1.762,4.924,0.074,3.019-1.779
						c1.403,1.645,2.429,0.697,4.264,2.101c-0.057-0.405-0.65-0.774,0.966-0.575c0.073-0.117,0.245-0.268,0.354-0.355
						c0.05,0.01,0.067,0.018,0.109,0.029c-0.032-0.017-0.057-0.03-0.089-0.047c0.07-0.061,0.076-0.074-0.034-0.017
						c-0.385-0.177-0.696-0.39-0.823-0.615c0.802-0.929,3.371-0.899,4.24-1.381c0.959,0.192-0.401,0.465,0.123,0.896l1.298-0.717
						c0.129,0.897,2.547,1.49,0.289,2.018l2.033,0.039c1.196,0.504,2.843,0.705,3.858,0.326c0.959,0.195,2.422-0.994,1.586-0.291
						l3.188-0.557l0.029,0.225c3.146,0.113,6.475-1.486,10.071,0.135c1.059-0.227,2.153-0.504,3.925-0.25l0.345,0.777
						c1.359-0.271,4.083,0.777,4.667-0.031c1.467,2.091,6.599,0.455,8.99,0.826l0.09-1.014c1.646,0.057,3.225-0.23,5.268-0.637
						l-0.125-0.898c1.761-0.735,4.528,0.639,7.314,0.545c-0.189,0.344-0.896,0.254-1.396,0.047
						c3.329,2.026,7.023-1.473,10.042,0.002c0.752-0.325,1.297-0.215,1.824,0.012c-0.07,0.002-0.132,0.018-0.186,0.047
						c0.077,0.011,0.191,0.012,0.309,0.011c0.332,0.154,0.674,0.333,1.045,0.478c-0.315-0.219-0.617-0.398-0.879-0.48
						c0.58-0.02,1.46-0.13,2.323-0.355l0.367,0.964c0.07-0.013,0.127-0.011,0.2-0.028c0.846,0.357,0.68-0.455,0.229-1.18
						c0.435-0.158,0.833-0.35,1.141-0.582c0.688,1.556,2.263-0.523,3.201,1.137c0.581-0.811,4.336-0.609,4.796-2.311
						c0.029,0.221,0.284,0.326-0.182,0.341c0.962,0.194,1.922,0.388,2.785-0.093l0.408,1.225l2.1-1.646
						c1.275,0.746,1.804,1.18,0.538,2.123c3.059-1.449,2.481-0.547,5.082-1.982l-0.126,0.791c0.929-0.029,2.416-1.09,2.977-0.436
						c2.08,1.504,10.29,0.208,15.628,1.607c-1.036-2.332,2.481,1.043,2.693-0.764c0.311,0.551,1.055,0.863,0.19,1.343
						c2.725-0.542,4.093,0.874,5.975-0.649c0.312,0.553-0.583,0.809-0.306,1.135c0.219-0.117,0.866-0.479,1.149-0.149
						c0.277,0.327-0.399,0.462-0.83,0.703c2.783-0.093,3.064-1.792,3.267-3.388c1.41,0.756,2.114,0.649,3.132-0.396
						c0.491,0.521,1.31,1.067-0.419,1.254c0.973,0.076,5.943,0.766,6.042-0.514c0.305,0.324,1.359,0.096,1.616-0.053
						c2.183,0.076,2.375,0.191,4.518,0.07l-0.594-0.208c0.847-1.542,1.782-0.345,3.51-0.53l-0.05,0.159
						c3.963,1.112,1.711-0.534,5.62,0.735l-0.213-0.959c0.364-2.063,3.464,1.217,5.732,0.428l-0.819-0.547
						c1.239-0.705,3.464,2.805,4.708,3.063c0.271,0.179-0.429,0.288-0.807,0.421c3.258,1.217,0.422-1.258,2.85-1.549
						c0.447,0.678-0.577,1.723,1.057,1.85c0.814,0.549,4.739-2.201,6.969-0.9c-0.491-0.523-0.979-1.045,0.148-1.437
						c1.729-0.187,4.673,1.974,6.233,0.328c0.22,0.142,0.303,0.278,0.312,0.409c1.321-0.426,4.293-0.706,5.089-1.6
						c1.222,3.314,8.214-1.611,8.185,1.445l4.063-0.164l-0.105,0.312c2.598,0.202,3.516-0.531,4.429-1.264
						c0.601,0.207,0.162,0.494,0.112,0.652c3.796,0.617,4.174,0.486,7.355-1.035l0.331,0.992c0.862-0.577,5.487,1.553,9.21,0.396
						c-0.036,0.113-0.113,0.305-0.409,0.445c4.188-1.164,10.027,2.75,11.562-0.859l2.765-0.891
						c-3.576-0.281,0.532-1.566-0.938-2.167c1.405-0.212,3.635,1.088,1.907,1.274l-0.271-0.18c-0.635,1.883,4.443,0.666,4.347,1.948
						c7.037-0.093,13.895,0.948,20.485,1.028l-0.759-1.463l2.299,0.084c0.604,0.342,0.811,1.145-0.83,1.084
						c0.862,0.83,2.751-0.693,2.797-1.012c3.212,0.592-1.254,1.705-0.269,1.74l1.337-0.108l-0.302-0.171
						c1.085-0.598,1.181-1.23,3.152-1.16c1.247,0.293,0.64,0.902,1.131,0.959c-0.004,0.104,0.162,0.152,0.753,0.043l2.896,0.123
						l-1.158-1.154c1.283-0.568,2.724,0.061,1.387-1.248c1.962,2.018,10.805,0.725,12.01,1.352c1.798-0.842,3.572-0.827,5.771-0.726
						c-0.547-0.241-0.874-1.539,1.022-1.38c-0.693,2.68,3.473,1.163,5.005,3.09c-1.369-1.277,5.392-0.314,3.242-2.129
						c1.582,0.216,0.096,1.002,1.297,1.633c3.767-1.039,8.3,0.674,12.955,0.324c0.072-0.352-0.707-0.891,0.291-1.414l2.458,1.76
						c0.92-0.174,0.847-2.031,2.526-0.811c-0.237-0.297-0.591-0.741,0.025-0.854c9.12,1.714,18.636-1.404,27.896,1.816
						c-1.254-0.682-0.418-0.75,0.54-0.773c-0.622-0.164,0.015-0.871-0.108-1.347l3.878,1.323c0.706-1.322,4.157-0.089,4.562-1.354
						l-1.228,0.228c1.633-1.492-2.285-3.318-2.047-5.234c-1.828,1.698-4.82-2.514-7.82-0.084c-0.662-0.391,0.564-0.618,0.21-1.062
						c-0.76,0.821-1.678,0.993-3.38,0.624l0.192-0.204c-4.78,0.202-6.831-0.608-12.202-1.148l0.398,0.948
						c-1.154-0.127-1.397-0.424-1.938-0.661c-1.324,1.436,3.241,0.081,2.034,1.665c-1.53-1.928-8.139-0.029-9.173-2.22
						c-1.776-0.011,0.521,1.097-1.255,1.084l-0.471-0.593l-0.448,0.764c-1.164-0.126-1.752-0.867-1.795-1.369
						c0.282,0.06,0.803-0.14,1.105-0.184c-1.51-0.698-4.256,0.238-4.774,0.011l1.706,0.365c-4.846,0.555-10.763-0.224-15.443,0.982
						l0.355,0.448c-3.575,0.826-2.863-0.491-6.788-0.109l0.143-0.106c-0.786,0.445-1.835,0.67-2.909,0.619
						c0.991-0.523-1.864-1.018-0.564-1.597c-3.877,0.888-1.918,0.697-4.479,2.358l-0.59-0.741c-0.873,0.67-0.945,1.024-2.905,1.216
						c1.607-0.636-1.252-1.129,0.55-1.971c-4.114-1.622-6.108,1.638-7.995-0.734c-1.89,2.053,3.56,1.14,2.501,1.579
						c0.886,0.672-1.559,1.535-2.85,1.328c-1.314-0.046-2.234-2.625-5.54-2.586c0.329,0.009,0.352-0.145,0.68-0.137
						c-1.237-0.523-2.424,0.709-3.941-0.141c-0.851,1.24-1.971-0.072-2.215,1.511l3.031-0.366c-1.719,0.414-3.33,2.266-6.162,1.368
						c0.221-0.319,1.063-0.738,1.643-0.973c-0.828-0.467-1.595,0.309-2.453-0.17c0.244-1.585,3.685-0.345,5.526-1.553
						c-0.889-0.669-3.483,1.148-2.559-0.568c-1.33,2.182-3.257-0.275-5.495,1.391l0.147-0.949c-0.354,0.148-1.088,0.597-1.74,0.573
						l1.181-1.23c-1.812,1.049-3.494-0.917-5.232-0.347c3.64-0.029,0.817,1.144,2.356,1.836c-4.489,1.27-2.582-2.482-7.607-2.027
						c0.681-0.134,2.555,0.569,1.49,1.01c-0.957-0.196-2.221-0.56-2.808-1.058c-3.33,0.197,0.512,0.976-0.906,1.559
						c-1.134-1.156-1.635,0.471-3.095,0.841l-0.01-0.965c-3.795-0.619-1.007,2.011-4.423,1.263l1.444-1.338l-1.781,0.346
						l0.367-1.098c-1.938,0.814-2.541,0.604-4.438,0.296c0.441,0.68-0.248,1.751-1.929,1.782c-1.146-0.574,0.642-0.918-1.741-0.78
						c0.538-0.604,1.127-1.362,2.164-0.473c0.106-0.314,0.53-0.606,0.64-0.916c-1.234-0.66-3.102-0.15-3.965-0.142
						c0.332,0.036,0.729,0.088,0.933,0.226l-3.453,1.336c-0.544-0.362-0.112-0.653,0.314-0.938c-0.699,0.104-1.184,0.548-2.212,0.63
						c0.267-0.784,0.202-1.594,1.658-1.962L283,2.533c-0.22-0.341-1.688-0.936-1.262-1.226c-1.824-0.461-4.475,1.521-6.894,0.914
						c-0.125,0.152-0.377,0.297-0.892,0.409c-2.272-0.177-4.286-1.139-6.98-0.064l-1.529-1.406
						c-2.109,0.319,2.069,1.771-1.443,2.302c-2.487,0.449-0.929-1.199-1.801-1.59c-1.237,0.708-3.388,2.15-5.673,1.006
						C257.283,2.613,257.876,2.821,258.583,2.717z M232.561,3.341c0.504-0.203,1.51-0.827,1.878-0.259
						C233.865,4.188,233.42,3.659,232.561,3.341z M193.004,5.664c0.375-0.32,0.955-0.162,1.608,0.203
						C194.138,5.947,193.601,5.911,193.004,5.664z M82.81,12.38c0.021-0.016,0.037-0.027,0.054-0.047
						C83.989,12.71,83.59,12.562,82.81,12.38z M80.475,11.962c-0.235,0.135-0.219,0.268-0.12,0.402
						c0.163-0.244,0.688-0.262,1.285-0.191C81.474,11.92,81.172,11.746,80.475,11.962z M331.29,11.582l-0.455-0.252
						C331.862,11.052,331.574,11.302,331.29,11.582z"/>
					<path fill="#1D1D1D" d="M197.489,4.343c0.143,0.163,0.182,0.343,0.215,0.524C197.903,4.705,197.907,4.518,197.489,4.343z"/>
					<path fill="#1D1D1D" d="M274.766,2.21c0.026,0.008,0.053,0.004,0.079,0.011c0.044-0.058,0.067-0.118,0.08-0.175L274.766,2.21z"
						/>
					<path fill="#1D1D1D" d="M116.653,3.781c0.48,0.14,0.749,0.317,0.927,0.499C117.607,4.043,117.388,3.844,116.653,3.781z"/>
					<path fill="#1D1D1D" d="M68.098,13.601l1.497-0.25c-0.724,0.047-0.982-0.164-1.348-0.316
						C68.28,13.26,68.565,13.585,68.098,13.601z"/>
					<path fill="#1D1D1D" d="M55.113,7.63c-0.219,0.119-0.464,0.013-0.68,0.133l0.06,0.448C55.424,8.183,56.076,7.821,55.113,7.63z"
						/>
					<path fill="#1D1D1D" d="M66.713,10.396c-0.119-0.812-1.057-0.537-2.105-0.387c0.063-0.002,0.123-0.01,0.186,0
						C64.484,11.146,65.601,10.769,66.713,10.396z"/>
					<path fill="#1D1D1D" d="M64.365,10.037c-0.323,0.039-0.653,0.061-0.969,0.021C63.274,10.513,63.789,10.152,64.365,10.037z"/>
					<path fill="#1D1D1D" d="M77.512,12.5c-0.497-0.208-0.312,1.038-0.593,0.709C76.364,14.24,80.232,11.957,77.512,12.5z"/>
					<polygon fill="#1D1D1D" points="65.864,7.722 66.24,8.724 66.827,7.916 					"/>
					<path fill="#1D1D1D" d="M74.139,8.457l-1.675-0.277c0.025,0.168-0.188,0.268-0.448,0.342
						C73.047,8.554,74.178,8.753,74.139,8.457z"/>
					<path fill="#1D1D1D" d="M72.016,8.521c-0.538-0.02-1.049,0.002-1.348,0.166C70.959,8.677,71.584,8.644,72.016,8.521z"/>
					<polygon fill="#1D1D1D" points="68.153,7.421 68.648,7.63 69.831,7.704 					"/>
					<path fill="#1D1D1D" d="M92.14,8.65l1.827-0.287c0.187-0.343-0.312-0.553-0.992-0.416C92.538,8.186,91.859,8.318,92.14,8.65z"
						/>
					<path fill="#1D1D1D" d="M86.613,5.907c0.494,0.208,0.527,0.431,0.806,0.76l0.056-1.242L86.613,5.907z"/>
					<path fill="#1D1D1D" d="M91.942,5.616c0.182-0.345,2.652-0.989,0.336-0.911C92.093,5.046,90.263,5.333,91.942,5.616z"/>
					<polygon fill="#1D1D1D" points="119.479,7.188 119.014,7.204 119.081,9.24 					"/>
					<path fill="#1D1D1D" d="M143.75,2.314c-2.166-0.488-0.515,1.257-2.472,0.647c-0.508,0.481,1.6,0.498,1.079,0.914
						C143.663,3.367,144.35,3.655,143.75,2.314z"/>
					<path fill="#1D1D1D" d="M142.356,3.875c-0.21,0.08-0.432,0.178-0.667,0.31C142.068,4.058,142.246,3.96,142.356,3.875z"/>
					<polygon fill="#1D1D1D" points="416.313,12.615 417.706,13.041 416.807,12.355 					"/>
					<path fill="#1D1D1D" d="M418.987,11.103l0.328,1.301l0.836-1.176C419.836,11.285,419.225,11.398,418.987,11.103z"/>
					<path fill="#1D1D1D" d="M228.693,0.725l-0.106,0.312c0.216,0.338,0.542,0.363,1.194,0.416L228.693,0.725z"/>
					<polygon fill="#1D1D1D" points="247.58,1.696 247.254,1.67 247.862,2.844 					"/>
					<path fill="#1D1D1D" d="M263.43,0.199c-0.646-0.049-1.407,0.213-2.057,0.164C262.784,0.15,263.606,1.664,263.43,0.199z"/>
				</g>
			</g>
		</g>
	</g>
</g>
</svg>
