<?xml version="1.0" encoding="utf-8"?>
<!-- Generator: Adobe Illustrator 16.0.0, SVG Export Plug-In . SVG Version: 6.00 Build 0)  -->
<!DOCTYPE svg PUBLIC "-//W3C//DTD SVG 1.1//EN" "http://www.w3.org/Graphics/SVG/1.1/DTD/svg11.dtd">
<svg version="1.1" id="Layer_1" xmlns="http://www.w3.org/2000/svg" xmlns:xlink="http://www.w3.org/1999/xlink" x="0px" y="0px"
	 width="85.729px" height="149.626px" viewBox="0 0 85.729 149.626" enable-background="new 0 0 85.729 149.626"
	 xml:space="preserve">
<path d="M50.825,50.815c1.297-2.792,2.575-5.233,3.581-7.786c1.567-3.954,3.049-7.946,4.354-11.998
	c0.419-1.304,0.518-2.944,0.131-4.237c-0.685-2.309-1.95-4.431-2.77-6.707c-0.33-0.919-0.348-2.09-0.128-3.057
	c0.522-2.31-0.598-4.757,1.153-7.023c2.789-3.608,3.759-4.074,7.789-2.312c2.004,0.872,2.734,0.484,3.473-1.598
	c1.059-2.997,4.614-5.674,7.625-6.08c0.738-0.104,1.637,0.257,2.332,0.652c4.028,2.294,5.018,6.119,4.571,10.389
	c-0.574,5.404-2.009,10.597-4.518,15.462c-0.684,1.327-1.258,2.791-1.497,4.253c-0.137,0.838,0.419,1.839,0.791,2.711
	c2.048,4.81,4.539,9.474,6.071,14.443c1.017,3.312,0.691,7.055,0.957,10.605c0.231,3.057,0.52,6.109,0.644,9.167
	c0.165,4.104,0.59,8.252,0.15,12.301c-0.313,2.896-1.911,5.641-2.842,8.485c-0.279,0.848-0.66,2.118-0.271,2.662
	c4.198,5.904,2.209,11.56-0.918,16.873c-2.359,4.002-5.455,7.56-8.2,11.329c-0.652,0.899-1.282,1.82-1.843,2.782
	c-1.965,3.363-3.784,6.825-5.9,10.084c-0.8,1.23-2.195,2.133-3.456,2.972c-3.154,2.099-6.361,4.122-9.6,6.085
	c-2.194,1.33-3.358,3.249-3.389,5.781c-0.029,2.225-1.012,2.92-3.166,2.412c-1.833-0.432-3.792-0.819-5.635-0.622
	c-6.603,0.712-13.083,0.188-19.376-1.802c-2.24-0.709-4.291-2.189-6.27-3.561c-3.1-2.149-6.034-4.552-9.109-6.745
	c-1.211-0.869-2.713-1.332-3.874-2.25c-0.621-0.485-1.223-1.643-1.084-2.343c0.331-1.691,1.167-3.273,1.676-4.939
	c0.373-1.23,0.906-2.577,0.733-3.777c-0.419-2.932-1.281-5.793-1.817-8.713c-0.375-2.027-0.55-4.097-0.74-6.154
	c-0.201-2.157-0.595-4.347-0.406-6.479c0.303-3.446,1.018-6.859,1.542-10.287c0.854-5.5,3.94-10.042,6.176-14.95
	c1.384-3.051,2.325-6.305,3.696-9.363c1.37-3.075,1.683-6.724,4.558-9.019c0.104-0.086,0.173-0.25,0.289-0.298
	c3.962-1.704,7.359-4.99,12.141-4.402c1.607,0.199,2.956-0.153,2.781-2.331c-0.031-0.364,0.284-0.77,0.475-1.133
	C36.579,41.053,45.823,43.28,50.825,50.815z M34.15,83.505c0.254-0.062,0.507-0.124,0.755-0.188c0.073-0.113,0.183-0.22,0.213-0.347
	c1.353-5.271,2.656-6.436,8.059-7.189c1.51-0.213,2.294-1.027,2.341-2.64c0.082-3.218,0.228-6.435,0.387-9.645
	c0.122-2.54,0.107-5.111,0.496-7.615c0.699-4.488-2.669-8.036-7.073-7.222c-2.173,0.403-6.146,6.016-5.995,8.285
	c0.183,2.677,0.31,5.372,0.23,8.056c-0.015,0.567-1.027,1.108-1.578,1.663c-0.486-0.644-1.51-1.492-1.361-1.899
	c0.892-2.472-0.507-4.069-1.637-5.913c-0.703-1.146-1.632-1.388-2.572-1.019c-2.563,0.999-5.08,2.147-7.557,3.357
	c-1.763,0.859-2.291,2.582-2.882,4.374c-1.128,3.432-2.087,7.062-3.958,10.067c-4.14,6.652-6.5,13.905-7.883,21.479
	c-1.112,6.092-1.022,12.299,1.218,18.214c1.272,3.35,0.625,7.567,4.273,9.886c0.275,0.173,0.409,0.991,0.249,1.336
	c-0.151,0.324-0.878,0.69-1.182,0.578c-2.645-1.03-2.992,1.149-3.704,2.715c-0.509,1.121-0.173,1.924,1.048,2.497
	c1.414,0.662,2.771,1.504,4.022,2.444c3.179,2.389,6.27,4.9,9.433,7.309c0.763,0.58,1.638,1.027,2.521,1.408
	c7.031,3.041,14.407,2.393,21.77,2.064c2.323-0.104,2.926-1.345,2.892-3.339c-2.747-1.083-5.353-2.222-8.401-1.607
	c-0.774,0.156-1.774-0.852-2.674-1.319c0.856-0.405,1.678-0.975,2.576-1.184c1.67-0.391,3.378-0.658,5.087-0.813
	c1.605-0.148,3.236-0.09,4.851-0.12c1.815-0.036,3.885,0.489,5.4-0.216c4.531-2.104,8.449-5.163,11.166-9.555
	c2.131-3.445,4.094-7.011,6.44-10.291c3.029-4.238,6.344-8.236,8.475-13.112c2.178-4.98,1.729-7.893-2.362-11.19
	c-3.677-2.966-7.218-6.127-11.015-8.932c-1.831-1.353-4.018-2.602-6.204-2.991c-4.019-0.721-8.157-0.84-12.251-1.073
	c-1.616-0.096-3.277,0.014-4.865,0.318c-1.415,0.277-2.868,0.855-3.077,2.679c-0.311,2.688,0.564,4.795,2.679,5.492
	c2.514,0.82,5.139,1.327,7.743,1.828c1.731,0.332,3.524,0.653,5.266,0.543c1.794-0.114,3.003,0.493,3.195,2.168
	c0.486,4.14,0.76,8.312,1.011,12.48c0.031,0.485-0.602,1.016-0.931,1.522c-0.303,0.036-0.609,0.068-0.918,0.103
	c-0.181-0.811-0.383-1.617-0.536-2.433c-0.427-2.255-0.641-4.576-1.32-6.743c-0.348-1.102-1.365-2.47-2.366-2.786
	c-3.266-1.033-6.27,0.292-8.821,2.267c-5.242,4.061-9.332,9.16-12.016,15.299c-0.884,2.015-1.309,4.235-2.085,6.828
	c-0.272-0.187-1.345-0.525-1.459-1.075c-0.24-1.169-0.256-2.543,0.13-3.656c0.661-1.899,1.759-3.639,2.553-5.501
	c0.422-0.984,0.947-2.136,0.802-3.113c-0.341-2.289,0.171-4.262,2.144-5.64c2.948-2.058,5.964-4.019,8.938-6.04
	c0.312-0.209,0.54-0.535,0.812-0.806c-0.034-0.202-0.064-0.404-0.095-0.61c-0.977,0.012-2.19-0.354-2.889,0.099
	c-3.602,2.321-6.579,1.859-8.947-1.616c-0.174-0.256-0.463-0.437-0.977-0.903c-0.799,1.331-1.495,2.5-2.206,3.66
	c-0.468,0.767-0.784,1.779-1.458,2.238c-5.277,3.597-8.121,3.338-12.006-1.617c-0.875-1.12-1.658-2.83-1.513-4.167
	c0.404-3.794,1.401-7.522,1.991-11.303c0.455-2.888,0.662-5.814,0.949-8.726c0.114-1.197,0.153-2.4,1.878-2.755
	c0.43,1.355,0.862,2.664,1.257,3.978c0.973,3.261-0.65,6.2-1.203,9.254c-0.642,3.551-1.209,7.026,0.073,10.562
	c0.705,1.936,2.962,3.061,4.624,2.223c3.176-1.598,4.042-4.67,4.665-7.737c0.745-3.67,1.001-7.448,1.694-11.134
	c0.399-2.128,1.239-4.174,2.019-6.68c0.505,0.789,0.885,1.104,0.896,1.437c0.109,3.459,0.119,6.926,0.245,10.389
	C33.682,81.269,33.974,82.387,34.15,83.505z M59.989,38.172c-0.242-0.024-0.474-0.05-0.706-0.078c-1,2.672-1.948,5.355-3.002,8
	c-0.977,2.46-2.005,4.904-3.13,7.301c-0.263,0.575-0.916,1.069-1.5,1.366c-1.785,0.906-2.578,2.592-2.615,4.317
	c-0.09,4.329,0.127,8.665,0.302,12.997c0.136,3.306,0.183,3.314,3.419,3.565c1.99,0.151,3.989,0.367,5.986,0.362
	c3.972-0.012,7.155,1.695,10.019,4.302c2.462,2.242,4.923,4.485,7.511,6.568c0.894,0.723,2.47,2.162,3.277,0.362
	c1.625-3.651,3.187-7.386,2.728-11.644c-0.455-4.219-0.832-8.475-0.779-12.713c0.078-6.221-0.237-12.276-2.994-17.994
	c-2.131-4.418-4.201-8.877-6.045-13.426c-1.354-3.347-2.385-6.836-3.405-10.309c-1.076-3.673-1.368-7.669-5.946-9.154
	c-1.518-0.492-2.351-0.144-2.941,0.844c-0.529,0.897-0.848,2.152-0.72,3.181c0.281,2.274,0.922,4.504,1.374,6.762
	c0.248,1.239,0.59,2.26,2.118,2.395c0.354,0.028,0.887,0.727,0.922,1.153c0.099,1.162-0.159,2.359-0.045,3.513
	c0.29,2.964,0.443,5.983,1.14,8.861c0.795,3.303,2.07,6.494,3.223,9.699c1.851,5.158,0.512,10.343,0.102,15.508
	c-0.056,0.691-1.179,1.957-1.509,1.862c-2.146-0.595-4.296-1.342-6.254-2.401c-0.487-0.261-0.275-1.855-0.381-2.837
	c0.892-0.015,1.803-0.152,2.67-0.006c0.61,0.104,1.158,0.588,1.714,0.89C66.765,52.739,62.503,45.647,59.989,38.172z M74.711,26.374
	c0.572-0.903,0.875-1.255,1.038-1.667c0.845-2.137,1.909-4.23,2.406-6.454c0.703-3.167,1.271-6.429,1.322-9.657
	c0.034-1.806-1.102-3.68-3.261-4.12c-2.061-0.417-2.911,1.101-3.746,2.626c-0.662,1.224-1.57,2.338-2.08,3.619
	c-0.297,0.745-0.189,1.774,0.027,2.594c0.521,1.927,1.211,3.809,1.841,5.709C73.017,21.309,73.783,23.592,74.711,26.374z
	 M38.785,90.696c0.188-0.156,0.378-0.312,0.567-0.471c-1.203-1.673-2.41-3.344-3.916-5.431
	C35.11,88.638,36.074,90.116,38.785,90.696z"/>
</svg>
