<?xml version="1.0" encoding="utf-8"?>
<!-- Generator: Adobe Illustrator 16.0.0, SVG Export Plug-In . SVG Version: 6.00 Build 0)  -->
<!DOCTYPE svg PUBLIC "-//W3C//DTD SVG 1.1//EN" "http://www.w3.org/Graphics/SVG/1.1/DTD/svg11.dtd">
<svg version="1.1" id="Layer_1" xmlns="http://www.w3.org/2000/svg" xmlns:xlink="http://www.w3.org/1999/xlink" x="0px" y="0px"
	 width="117.04px" height="144.523px" viewBox="0 0 117.04 144.523" enable-background="new 0 0 117.04 144.523"
	 xml:space="preserve">
<path d="M15.666,85.777c-0.587-0.579-1.099-1.522-1.78-1.68c-3.936-0.895-4.435-1.651-6.787,2.461
	c-1.958,3.43-4.621,3.521-6.713,0.472c-0.805-1.178-0.297-4.348,1.007-6.071c0.492-0.648,1.031-1.265,1.594-1.852
	c1.277-1.334,1.596-2.682,0.577-4.413c-0.89-1.511-0.179-4.11,1.303-5.104c2.684-1.8,3.78-4.298,4.262-7.493
	c0.28-1.845,1.757-3.504,2.696-5.248c0.484-0.904,0.849-1.903,1.471-2.694c0.733-0.932,1.564-1.943,2.579-2.464
	c4.215-2.173,8.141-4.521,10.087-9.3c0.829-2.024,2.284-3.779,3.39-5.698c0.579-1,0.875-2.191,1.542-3.105
	c0.854-1.166,1.848-2.294,2.992-3.157c1.765-1.339,2.728-3.166,2.014-4.455c-0.821-1.491-3.317-2.146-5.055-0.946
	c-2.447,1.688-5.175,2.157-7.958,2.683c-0.686,0.125-1.325,0.762-1.884,1.278c-0.363,0.335-0.487,0.916-0.803,1.32
	c-1.166,1.513-3.704,2.498-4.613,1.642c-1.382-1.306-1.574-3.089-0.674-4.689c0.959-1.699,2.163-3.294,3.452-4.763
	c1.158-1.328,1.776-2.606,1.984-4.493c0.212-2.029,1.489-3.943,2.333-5.896c0.177-0.401,0.654-0.719,0.716-1.114
	c0.448-3.206,1.899-5.494,5.159-6.381c0.29-0.079,0.452-0.994,0.508-1.541c0.166-1.767,1.094-2.568,2.807-2.857
	c3.101-0.528,5.805-0.158,8.481,1.841c1.832,1.369,4.245,1.946,6.412,2.842c1.552,0.637,2.498,1.703,2.821,3.419
	c0.739,4.01,4.209,5.248,7.091,7.075c1.112,0.703,2.41,1.218,3.309,2.137c2.429,2.489,5.517,3.2,8.693,3.888
	c0.974,0.212,1.937,0.9,2.685,1.606c1.016,0.959,1.938,2.058,2.686,3.24c1.945,3.091,4.988,4.947,7.582,7.316
	c1.304,1.188,2.492,2.873,2.912,4.548c0.283,1.114-0.769,2.667-1.436,3.91c-0.891,1.647-1.919,3.229-3.009,4.754
	c-0.744,1.041-1.539,2.175-2.573,2.841c-1.727,1.104-3.212,2.13-3.725,4.374c-0.57,2.5-2.495,3.858-4.928,4.106
	c-1.936,0.198-3.312,1.003-4.377,2.579c-0.496,0.738-1.084,1.42-1.689,2.068c-1.455,1.544-3.553,1.946-4.905,0.909
	c-1.848-1.421-0.939-3.495-0.198-4.629c1.66-2.538,3.007-5.049,3.235-8.125c0.036-0.494,0.496-0.948,0.56-1.444
	c0.133-1.052,2.209-1.926,0.312-3.168c-1.229-0.804-3.585-0.382-4.636,0.836c-0.194,0.224-0.289,0.561-0.52,0.718
	c-0.807,0.542-1.667,1.479-2.478,1.447c-2.522-0.104-4.096,1.032-5.337,3.093c-1.971,3.274-4.493,6.2-5.218,10.208
	c-0.341,1.874-1.416,3.664-2.407,5.345c-1.491,2.544-3.018,5.109-4.869,7.375c-1.602,1.965-3.689,3.509-5.535,5.273
	c-0.77,0.738-1.735,1.459-2.118,2.396c-0.849,2.082-2.313,3.313-4.381,3.591c-1.709,0.229-3.073,0.825-4.084,2.211
	c-1.454,1.986-2.784,0.269-4.015-0.252c-0.63-0.262-0.928-1.335-1.376-2.04C15.115,86.264,15.393,86.02,15.666,85.777z
	 M63.402,56.335c2.173-0.562,4.203-1.022,6.183-1.652c0.439-0.142,0.785-0.842,1.035-1.351c1.215-2.514,2.728-4.711,5.157-6.232
	c0.785-0.492,1.22-1.601,1.749-2.467c0.566-0.928,0.92-2.023,1.605-2.839c2.213-2.612,2.121-3.821-0.58-5.938
	c-2.473-1.93-5.149-3.539-6.565-6.699c-0.888-1.998-2.827-3.224-4.966-4.161c-3.471-1.513-6.757-3.456-10.115-5.23
	c-0.583-0.31-1.114-0.718-1.697-1.021c-3.939-2.083-7.871-4.136-8.731-9.264c-0.103-0.633-0.722-1.421-1.303-1.701
	c-3.299-1.582-6.647-3.057-10.008-4.517c-1.38-0.602-2.411-0.06-3.069,1.271C31.272,6.2,30.38,7.696,28.294,8.086
	c-0.563,0.104-1.062,1.069-1.399,1.74c-0.33,0.643-0.19,1.632-0.633,2.095c-2.28,2.386-2.878,5.329-3.121,8.469
	c-0.047,0.593-0.563,1.138-0.781,1.732c-0.214,0.581-0.325,1.203-0.484,1.806c0.531,0.062,1.062,0.134,1.594,0.186
	c2.7,0.264,4.867-0.948,7.072-2.367c2.284-1.474,4.669-0.88,6.848,0.531c1.877,1.215,2.085,3.057,1.867,5.111
	c-0.27,2.58-2.083,3.917-3.856,5.382c-1.031,0.854-1.977,1.896-2.72,3.014c-0.674,1.009-0.936,2.294-1.541,3.36
	c-1.243,2.187-2.675,4.265-3.89,6.467c-1.667,3.045-3.543,5.884-7.022,6.931c-2.687,0.812-4.429,2.379-5.216,5.135
	c-0.192,0.668-0.878,1.181-1.227,1.82c-0.702,1.289-1.729,2.562-1.909,3.937c-0.42,3.186-1.662,5.763-3.949,7.958
	c-0.488,0.466-0.761,1.546-0.63,2.241c0.573,3.058,0.373,5.761-2.348,7.773c-0.575,0.427-1.106,1.039-1.408,1.684
	c-0.22,0.477-0.032,1.145-0.028,1.729c0.571-0.188,1.249-0.236,1.682-0.597c0.412-0.348,0.557-1.02,0.84-1.54
	c1.081-2.006,3.886-3.627,5.932-2.922c1.697,0.588,2.791-0.07,4.026-0.865c0.674-0.434,1.34-0.922,2.074-1.229
	c1.59-0.67,2.76-0.256,3.073,1.604c0.214,1.263,0.298,2.547,0.484,4.188c1.586-0.703,3.498-0.924,4.171-1.971
	c1.481-2.306,3.478-3.721,5.626-5.194c1.189-0.817,2.004-2.246,2.887-3.479c1.148-1.62,2.159-3.342,3.295-4.975
	c0.753-1.076,2.155-1.973,2.359-3.112c1.007-5.694,4.039-10.271,7.205-14.852c1.594-2.298,3.402-4.039,6.269-4.392
	c0.436-0.054,0.9-0.452,1.229-0.803c3.672-3.923,6.871-3.783,10.496,0.193c1.471,1.614,1.006,3.079,0.065,4.359
	C63.672,51.365,63.525,53.708,63.402,56.335z"/>
<path d="M68.493,131.737c-1.537,0.237-2.72,0.422-3.896,0.601c-0.075,0.015-0.198,0.013-0.21,0.045
	c-0.946,2.636-4.179,3.323-4.988,6.041c-0.229,0.777-0.192,1.631-0.389,2.417c-0.603,2.411-3.394,4.249-5.706,3.521
	c-0.783-0.246-1.723-1.321-1.839-2.132c-0.619-4.222-1.602-8.443,0.543-12.646c1.556-3.054,1.273-6.345,0.187-9.525
	c-0.286-0.142-0.569-0.285-0.853-0.425c-0.028,0.435-0.024,0.883-0.087,1.312c-0.349,2.354-1.558,3.688-4.019,3.987
	c-0.694,0.083-1.436,1.126-1.836,1.9c-0.428,0.829-0.523,1.851-0.698,2.798c-0.563,3.066-1.852,4.036-4.938,3.637
	c-1.721-0.221-2.837-1.102-3.023-2.967c-0.383-3.819,0.757-7.334,2.125-10.793c0.89-2.241,2.241-4.388,0.789-6.934
	c-0.599-1.057-1.05-2.206-1.447-3.36c-0.21-0.607-0.194-1.307-0.216-1.965c-0.071-2.1-0.238-3.987-2.31-5.374
	c-1.681-1.127-1.693-3.087-0.278-4.449c1.572-1.525,3.251-2.966,5.615-3.197c0.722-0.069,1.723-0.501,2.014-1.074
	c0.964-1.895,2.518-2.477,4.417-2.825c2.06-0.381,4.049-1.095,6.099-1.541c1.487-0.322,2.797,0.062,3.499,1.608
	c0.341,0.741,0.884,1.525,0.869,2.277c-0.091,3.591,2.438,4.84,5.047,5.854c3.287,1.273,5.867,3.182,7.475,6.457
	c0.57,1.153,1.713,1.681,2.912,0.537c0.689-0.658,1.347-1.354,2.029-2.02c0.521-0.508,1.022-1.372,1.597-1.43
	c2.2-0.224,2.931-1.562,3.545-3.509c0.621-1.959,1.772-3.747,2.742-5.583c1.174-2.226,2.163-4.355,2.159-7.09
	c-0.004-1.788,1.525-3.55,2.238-5.374c0.617-1.588,1.137-3.231,1.553-4.891c0.811-3.257-0.17-7.012,3.074-9.587
	c1.946-1.546,5.287-2.538,7.514-1.511c2.775,1.277,5.477,2.726,8.287,3.904c1.162,0.487,2.574,0.322,3.791,0.712
	c1.563,0.501,3.44,0.892,4.479,2.004c1.425,1.515,0.341,3.522-0.753,4.858c-2.072,2.521-3.102,5.321-3.361,8.55
	c-0.369,4.531-3.18,8.06-4.941,12.027c-2.043,4.603-3.807,9.34-5.487,14.092c-1.224,3.465-2.712,6.453-6.269,8.134
	c-1.392,0.651-2.258,2.393-3.432,3.561c-0.853,0.845-1.713,1.803-2.757,2.292c-2.228,1.043-4.61,1.726-6.849,2.744
	c-0.836,0.381-1.477,1.253-2.154,1.954c-1.027,1.062-1.889,2.332-3.042,3.202c-1.353,1.016-2.45,1.936-2.616,3.838
	c-0.262,3.062-2.879,4.838-5.796,4.17c-2.002-0.46-2.847-3.763-1.608-6.279C67.676,133.481,68.054,132.668,68.493,131.737z
	 M37.347,98.958c3.371,2.442,3.204,5.593,3.529,8.606c0.061,0.613,0.494,1.226,0.86,1.771c2.159,3.265,1.497,6.643,0.38,10.017
	c-0.829,2.502-1.804,4.947-2.637,7.453c-0.404,1.215-0.38,2.557,1.126,2.819c0.371,0.063,1.125-1.344,1.469-2.175
	c1.094-2.65,1.398-5.903,5.194-6.28c0.329-0.034,0.67-0.687,0.882-1.111c0.428-0.868,0.678-1.826,1.156-2.658
	c1.269-2.23,4.893-3.107,5.417-1.305c1.079,3.731,1.814,7.647,1.132,11.62c-0.063,0.347-0.305,0.682-0.523,0.977
	c-2.131,2.941-1.73,6.374-1.689,9.685c0.008,0.665,1.003,1.312,1.542,1.972c0.337-0.693,0.963-1.389,0.967-2.079
	c0.012-3.259,0.856-4.611,3.746-5.977c0.549-0.26,0.751-1.192,1.242-1.682c0.987-0.971,1.995-2.472,3.129-2.606
	c1.328-0.156,2.248-0.352,3.196-1.339c1.55-1.617,4.096-0.909,4.281,1.32c0.162,1.896-0.466,3.866-0.816,5.79
	c-0.135,0.729-0.469,1.427-0.715,2.139c0.195,0.079,0.384,0.159,0.574,0.238c0.203-0.254,0.453-0.48,0.604-0.762
	c0.934-1.753,1.41-4.203,2.846-5.117c2.375-1.507,3.663-3.778,5.483-5.654c0.614-0.632,1.687-1.372,2.411-1.241
	c4.312,0.763,6.793-1.641,9.123-4.776c1.119-1.499,2.572-2.971,4.19-3.802c2.349-1.207,3.398-3.151,4.229-5.411
	c1.697-4.591,3.342-9.199,5.097-13.769c0.552-1.435,1.397-2.747,2.071-4.14c0.818-1.696,1.979-3.34,2.304-5.138
	c0.679-3.709,0.94-7.409,3.315-10.647c1.174-1.6,0.232-2.496-1.81-2.87c-1.806-0.337-3.532-1.132-5.258-1.83
	c-0.806-0.329-1.461-1.049-2.274-1.342c-1.961-0.716-4.02-1.905-5.963-1.77c-3.355,0.229-5.531,3.475-5.291,6.985
	c0.198,2.968-0.508,5.551-2.502,7.804c-0.527,0.593-0.758,1.553-0.912,2.382c-0.615,3.229-0.088,6.822-3.068,9.256
	c-0.241,0.197-0.229,0.693-0.396,1.021c-1.564,3.135-3.001,6.354-4.81,9.342c-0.55,0.91-2.183,1.102-3.239,1.758
	c-1.428,0.892-2.725,2.01-4.172,2.863c-2.191,1.297-3.514,0.884-4.562-1.509c-1.123-2.562-2.582-4.581-5.459-5.325
	c-1.471-0.38-2.836-1.19-4.23-1.852c-1.808-0.86-2.773-2.363-3.091-4.338c-0.127-0.804-0.353-1.588-0.444-2.396
	c-0.196-1.67-1.116-1.654-2.355-1.176c-0.958,0.367-2.056,1.047-2.912,0.837c-2.663-0.654-3.894,1.074-5.504,2.599
	c-1.011,0.958-2.591,1.312-3.936,1.879C39.548,98.314,38.771,98.5,37.347,98.958z"/>
</svg>
